<svg xmlns="http://www.w3.org/2000/svg" xmlns:xlink="http://www.w3.org/1999/xlink" width="500" zoomAndPan="magnify" viewBox="0 0 375 374.999991" height="500" preserveAspectRatio="xMidYMid meet" version="1.0"><defs><g/><clipPath id="ad7e814092"><path d="M 0 71 L 230.398438 71 L 230.398438 145 L 0 145 Z M 0 71 " clip-rule="nonzero"/></clipPath><clipPath id="2e4e538ffd"><rect x="0" width="231" y="0" height="74"/></clipPath><clipPath id="f06a8d6230"><path d="M 58 141 L 172 141 L 172 166.441406 L 58 166.441406 Z M 58 141 " clip-rule="nonzero"/></clipPath><clipPath id="04d239e5de"><rect x="0" width="114" y="0" height="26"/></clipPath><clipPath id="a926d17759"><path d="M 70.734375 0.839844 L 159.722656 0.839844 L 159.722656 78.132812 L 70.734375 78.132812 Z M 70.734375 0.839844 " clip-rule="nonzero"/></clipPath><clipPath id="496a190791"><rect x="0" width="231" y="0" height="167"/></clipPath></defs><rect x="-37.5" width="450" fill="#ffffff" y="-37.499999" height="449.999989" fill-opacity="1"/><rect x="-37.5" width="450" fill="#0c1929" y="-37.499999" height="449.999989" fill-opacity="1"/><g transform="matrix(1, 0, 0, 1, 72, 105)"><g clip-path="url(#496a190791)"><path stroke-linecap="butt" transform="matrix(1.93454, 0, 0, 1.93454, 6.183325, 151.777426)" fill="none" stroke-linejoin="miter" d="M 0.000139146 0.999469 L 17.80355 0.999469 " stroke="#ffffff" stroke-width="2" stroke-opacity="1" stroke-miterlimit="4"/><g clip-path="url(#ad7e814092)"><g transform="matrix(1, 0, 0, 1, 0, 71)"><g clip-path="url(#2e4e538ffd)"><g fill="#ffffff" fill-opacity="1"><g transform="translate(0.99613, 57.72787)"><g><path d="M 5.03125 0.65625 C 4.695312 0.65625 4.398438 0.535156 4.140625 0.296875 C 3.890625 0.0664062 3.765625 -0.210938 3.765625 -0.546875 L 3.765625 -34.6875 C 3.765625 -35.289062 4.082031 -35.710938 4.71875 -35.953125 C 5.320312 -36.117188 5.796875 -35.914062 6.140625 -35.34375 L 18.15625 -14.328125 L 30.21875 -35.34375 C 30.351562 -35.613281 30.5625 -35.796875 30.84375 -35.890625 C 31.132812 -35.992188 31.394531 -36.015625 31.625 -35.953125 C 32.257812 -35.710938 32.578125 -35.289062 32.578125 -34.6875 L 32.578125 -0.546875 C 32.578125 -0.210938 32.453125 0.0664062 32.203125 0.296875 C 31.953125 0.535156 31.644531 0.65625 31.28125 0.65625 C 30.9375 0.65625 30.644531 0.535156 30.40625 0.296875 C 30.175781 0.0664062 30.0625 -0.210938 30.0625 -0.546875 L 30.0625 -30.015625 L 19.25 -11.21875 C 19.050781 -10.78125 18.6875 -10.5625 18.15625 -10.5625 C 17.6875 -10.5625 17.316406 -10.78125 17.046875 -11.21875 L 6.28125 -30.015625 L 6.28125 -0.546875 C 6.28125 -0.210938 6.160156 0.0664062 5.921875 0.296875 C 5.691406 0.535156 5.394531 0.65625 5.03125 0.65625 Z M 5.03125 0.65625 "/></g></g></g><g fill="#ffffff" fill-opacity="1"><g transform="translate(37.338665, 57.72787)"><g><path d="M 2.71875 0.40625 C 2.382812 0.300781 2.148438 0.09375 2.015625 -0.21875 C 1.878906 -0.539062 1.878906 -0.867188 2.015625 -1.203125 L 14.625 -35.25 C 14.863281 -35.78125 15.269531 -36.046875 15.84375 -36.046875 C 16.40625 -36.046875 16.804688 -35.78125 17.046875 -35.25 L 29.71875 -1.203125 C 29.851562 -0.867188 29.84375 -0.539062 29.6875 -0.21875 C 29.539062 0.09375 29.300781 0.300781 28.96875 0.40625 C 28.664062 0.539062 28.351562 0.53125 28.03125 0.375 C 27.707031 0.226562 27.484375 -0.015625 27.359375 -0.359375 L 15.84375 -31.171875 L 8.84375 -12.515625 L 18.359375 -12.515625 C 18.691406 -12.515625 18.972656 -12.390625 19.203125 -12.140625 C 19.441406 -11.890625 19.5625 -11.582031 19.5625 -11.21875 C 19.5625 -10.875 19.441406 -10.582031 19.203125 -10.34375 C 18.972656 -10.113281 18.691406 -10 18.359375 -10 L 7.890625 -10 L 4.328125 -0.359375 C 4.191406 -0.015625 3.972656 0.226562 3.671875 0.375 C 3.367188 0.53125 3.050781 0.539062 2.71875 0.40625 Z M 2.71875 0.40625 "/></g></g></g><g fill="#ffffff" fill-opacity="1"><g transform="translate(69.006442, 57.72787)"><g><path d="M 5.03125 0.65625 C 4.695312 0.65625 4.398438 0.535156 4.140625 0.296875 C 3.890625 0.0664062 3.765625 -0.210938 3.765625 -0.546875 L 3.765625 -34.6875 C 3.765625 -35.332031 4.066406 -35.738281 4.671875 -35.90625 C 5.273438 -36.070312 5.765625 -35.882812 6.140625 -35.34375 C 9.253906 -30.382812 11.925781 -26.144531 14.15625 -22.625 C 16.382812 -19.101562 18.226562 -16.1875 19.6875 -13.875 C 21.144531 -11.5625 22.289062 -9.742188 23.125 -8.421875 C 23.96875 -7.097656 24.554688 -6.164062 24.890625 -5.625 C 25.222656 -5.09375 25.390625 -4.828125 25.390625 -4.828125 L 25.390625 -34.6875 C 25.390625 -35.03125 25.523438 -35.328125 25.796875 -35.578125 C 26.066406 -35.828125 26.367188 -35.953125 26.703125 -35.953125 C 27.035156 -35.953125 27.316406 -35.828125 27.546875 -35.578125 C 27.785156 -35.328125 27.90625 -35.03125 27.90625 -34.6875 L 27.90625 -0.546875 C 27.90625 0.0546875 27.617188 0.441406 27.046875 0.609375 C 26.441406 0.773438 25.957031 0.601562 25.59375 0.09375 C 22.476562 -4.863281 19.8125 -9.101562 17.59375 -12.625 C 15.382812 -16.144531 13.539062 -19.0625 12.0625 -21.375 C 10.59375 -23.6875 9.4375 -25.503906 8.59375 -26.828125 C 7.757812 -28.148438 7.164062 -29.078125 6.8125 -29.609375 C 6.457031 -30.148438 6.28125 -30.421875 6.28125 -30.421875 L 6.28125 -0.546875 C 6.28125 -0.210938 6.160156 0.0664062 5.921875 0.296875 C 5.691406 0.535156 5.394531 0.65625 5.03125 0.65625 Z M 5.03125 0.65625 "/></g></g></g><g fill="#ffffff" fill-opacity="1"><g transform="translate(100.72449, 57.72787)"><g><path d="M 5.984375 0.65625 C 5.648438 0.65625 5.351562 0.535156 5.09375 0.296875 C 4.84375 0.0664062 4.71875 -0.210938 4.71875 -0.546875 L 4.71875 -34.640625 C 4.71875 -35.015625 4.84375 -35.328125 5.09375 -35.578125 C 5.351562 -35.828125 5.648438 -35.953125 5.984375 -35.953125 C 6.347656 -35.953125 6.644531 -35.828125 6.875 -35.578125 C 7.113281 -35.328125 7.234375 -35.015625 7.234375 -34.640625 L 7.234375 -0.546875 C 7.234375 -0.210938 7.113281 0.0664062 6.875 0.296875 C 6.644531 0.535156 6.347656 0.65625 5.984375 0.65625 Z M 5.984375 0.65625 "/></g></g></g><g fill="#ffffff" fill-opacity="1"><g transform="translate(112.738138, 57.72787)"><g><path d="M 15.78125 0.90625 C 11.863281 0.90625 8.804688 -0.191406 6.609375 -2.390625 C 4.410156 -4.585938 3.3125 -7.644531 3.3125 -11.5625 L 3.3125 -23.578125 C 3.3125 -27.503906 4.410156 -30.5625 6.609375 -32.75 C 8.804688 -34.945312 11.863281 -36.046875 15.78125 -36.046875 C 17.695312 -36.046875 19.507812 -35.625 21.21875 -34.78125 C 22.925781 -33.945312 24.367188 -32.78125 25.546875 -31.28125 C 25.773438 -31.007812 25.875 -30.703125 25.84375 -30.359375 C 25.8125 -30.023438 25.660156 -29.742188 25.390625 -29.515625 C 25.085938 -29.316406 24.757812 -29.238281 24.40625 -29.28125 C 24.0625 -29.332031 23.785156 -29.476562 23.578125 -29.71875 C 22.640625 -30.925781 21.484375 -31.863281 20.109375 -32.53125 C 18.734375 -33.195312 17.289062 -33.53125 15.78125 -33.53125 C 12.664062 -33.53125 10.226562 -32.648438 8.46875 -30.890625 C 6.707031 -29.140625 5.828125 -26.703125 5.828125 -23.578125 L 5.828125 -11.5625 C 5.828125 -8.445312 6.707031 -6.007812 8.46875 -4.25 C 10.226562 -2.488281 12.664062 -1.609375 15.78125 -1.609375 C 17.289062 -1.609375 18.734375 -1.929688 20.109375 -2.578125 C 21.484375 -3.234375 22.640625 -4.164062 23.578125 -5.375 C 23.785156 -5.644531 24.0625 -5.804688 24.40625 -5.859375 C 24.757812 -5.910156 25.085938 -5.816406 25.390625 -5.578125 C 25.660156 -5.378906 25.8125 -5.101562 25.84375 -4.75 C 25.875 -4.394531 25.773438 -4.085938 25.546875 -3.828125 C 24.367188 -2.316406 22.925781 -1.148438 21.21875 -0.328125 C 19.507812 0.492188 17.695312 0.90625 15.78125 0.90625 Z M 15.78125 0.90625 "/></g></g></g><g fill="#ffffff" fill-opacity="1"><g transform="translate(141.138598, 57.72787)"><g><path d="M 2.71875 0.40625 C 2.382812 0.300781 2.148438 0.09375 2.015625 -0.21875 C 1.878906 -0.539062 1.878906 -0.867188 2.015625 -1.203125 L 14.625 -35.25 C 14.863281 -35.78125 15.269531 -36.046875 15.84375 -36.046875 C 16.40625 -36.046875 16.804688 -35.78125 17.046875 -35.25 L 29.71875 -1.203125 C 29.851562 -0.867188 29.84375 -0.539062 29.6875 -0.21875 C 29.539062 0.09375 29.300781 0.300781 28.96875 0.40625 C 28.664062 0.539062 28.351562 0.53125 28.03125 0.375 C 27.707031 0.226562 27.484375 -0.015625 27.359375 -0.359375 L 15.84375 -31.171875 L 8.84375 -12.515625 L 18.359375 -12.515625 C 18.691406 -12.515625 18.972656 -12.390625 19.203125 -12.140625 C 19.441406 -11.890625 19.5625 -11.582031 19.5625 -11.21875 C 19.5625 -10.875 19.441406 -10.582031 19.203125 -10.34375 C 18.972656 -10.113281 18.691406 -10 18.359375 -10 L 7.890625 -10 L 4.328125 -0.359375 C 4.191406 -0.015625 3.972656 0.226562 3.671875 0.375 C 3.367188 0.53125 3.050781 0.539062 2.71875 0.40625 Z M 2.71875 0.40625 "/></g></g></g><g fill="#ffffff" fill-opacity="1"><g transform="translate(172.806375, 57.72787)"><g><path d="M 5.03125 0.703125 C 4.695312 0.703125 4.398438 0.582031 4.140625 0.34375 C 3.890625 0.113281 3.765625 -0.164062 3.765625 -0.5 L 3.765625 -33.9375 C 3.765625 -34.269531 3.890625 -34.5625 4.140625 -34.8125 C 4.398438 -35.070312 4.695312 -35.203125 5.03125 -35.203125 L 17.390625 -35.203125 C 19.273438 -35.203125 20.976562 -34.738281 22.5 -33.8125 C 24.019531 -32.894531 25.238281 -31.671875 26.15625 -30.140625 C 27.082031 -28.617188 27.546875 -26.9375 27.546875 -25.09375 C 27.546875 -23.519531 27.203125 -22.046875 26.515625 -20.671875 C 25.835938 -19.296875 24.910156 -18.128906 23.734375 -17.171875 C 22.554688 -16.210938 21.210938 -15.566406 19.703125 -15.234375 L 27.5 -1.109375 C 27.664062 -0.773438 27.695312 -0.445312 27.59375 -0.125 C 27.5 0.195312 27.316406 0.441406 27.046875 0.609375 C 26.710938 0.773438 26.382812 0.804688 26.0625 0.703125 C 25.75 0.597656 25.507812 0.394531 25.34375 0.09375 L 17.046875 -14.9375 L 9.703125 -14.9375 C 9.367188 -14.9375 9.078125 -15.0625 8.828125 -15.3125 C 8.578125 -15.5625 8.453125 -15.851562 8.453125 -16.1875 C 8.453125 -16.5625 8.578125 -16.863281 8.828125 -17.09375 C 9.078125 -17.332031 9.367188 -17.453125 9.703125 -17.453125 L 17.390625 -17.453125 C 18.804688 -17.453125 20.09375 -17.796875 21.25 -18.484375 C 22.40625 -19.171875 23.328125 -20.09375 24.015625 -21.25 C 24.703125 -22.40625 25.046875 -23.6875 25.046875 -25.09375 C 25.046875 -26.5 24.703125 -27.769531 24.015625 -28.90625 C 23.328125 -30.050781 22.40625 -30.96875 21.25 -31.65625 C 20.09375 -32.34375 18.804688 -32.6875 17.390625 -32.6875 L 6.28125 -32.6875 L 6.28125 -0.5 C 6.28125 -0.164062 6.160156 0.113281 5.921875 0.34375 C 5.691406 0.582031 5.394531 0.703125 5.03125 0.703125 Z M 5.03125 0.703125 "/></g></g></g><g fill="#ffffff" fill-opacity="1"><g transform="translate(203.167232, 57.72787)"><g><path d="M 5.03125 0 C 4.695312 0 4.398438 -0.125 4.140625 -0.375 C 3.890625 -0.625 3.765625 -0.914062 3.765625 -1.25 L 3.765625 -33.9375 C 3.765625 -34.269531 3.890625 -34.5625 4.140625 -34.8125 C 4.398438 -35.070312 4.695312 -35.203125 5.03125 -35.203125 L 22.671875 -35.203125 C 23.046875 -35.203125 23.347656 -35.070312 23.578125 -34.8125 C 23.816406 -34.5625 23.9375 -34.269531 23.9375 -33.9375 C 23.9375 -33.601562 23.816406 -33.3125 23.578125 -33.0625 C 23.347656 -32.8125 23.046875 -32.6875 22.671875 -32.6875 L 6.28125 -32.6875 L 6.28125 -19.15625 L 19.90625 -19.15625 C 20.25 -19.15625 20.546875 -19.035156 20.796875 -18.796875 C 21.046875 -18.566406 21.171875 -18.269531 21.171875 -17.90625 C 21.171875 -17.5625 21.046875 -17.265625 20.796875 -17.015625 C 20.546875 -16.765625 20.25 -16.640625 19.90625 -16.640625 L 6.28125 -16.640625 L 6.28125 -2.515625 L 22.671875 -2.515625 C 23.046875 -2.515625 23.347656 -2.394531 23.578125 -2.15625 C 23.816406 -1.925781 23.9375 -1.625 23.9375 -1.25 C 23.9375 -0.914062 23.816406 -0.625 23.578125 -0.375 C 23.347656 -0.125 23.046875 0 22.671875 0 Z M 5.03125 0 "/></g></g></g></g></g></g><g clip-path="url(#f06a8d6230)"><g transform="matrix(1, 0, 0, 1, 58, 141)"><g clip-path="url(#04d239e5de)"><g fill="#fec900" fill-opacity="1"><g transform="translate(1.49071, 19.391296)"><g><path d="M 1.78125 0.234375 C 1.664062 0.234375 1.5625 0.191406 1.46875 0.109375 C 1.375 0.0234375 1.328125 -0.078125 1.328125 -0.203125 L 1.328125 -12.296875 C 1.328125 -12.410156 1.375 -12.507812 1.46875 -12.59375 C 1.5625 -12.6875 1.664062 -12.734375 1.78125 -12.734375 C 1.914062 -12.734375 2.019531 -12.6875 2.09375 -12.59375 C 2.175781 -12.507812 2.21875 -12.410156 2.21875 -12.296875 L 2.21875 -6.984375 L 8.75 -6.984375 L 8.75 -12.296875 C 8.75 -12.410156 8.789062 -12.507812 8.875 -12.59375 C 8.96875 -12.6875 9.070312 -12.734375 9.1875 -12.734375 C 9.320312 -12.734375 9.425781 -12.6875 9.5 -12.59375 C 9.582031 -12.507812 9.625 -12.410156 9.625 -12.296875 L 9.625 -0.203125 C 9.625 -0.078125 9.582031 0.0234375 9.5 0.109375 C 9.425781 0.191406 9.320312 0.234375 9.1875 0.234375 C 9.070312 0.234375 8.96875 0.191406 8.875 0.109375 C 8.789062 0.0234375 8.75 -0.078125 8.75 -0.203125 L 8.75 -6.09375 L 2.21875 -6.09375 L 2.21875 -0.203125 C 2.21875 -0.078125 2.175781 0.0234375 2.09375 0.109375 C 2.019531 0.191406 1.914062 0.234375 1.78125 0.234375 Z M 1.78125 0.234375 "/></g></g></g><g fill="#fec900" fill-opacity="1"><g transform="translate(12.462723, 19.391296)"><g><path d="M 5.59375 0.234375 C 4.695312 0.234375 3.921875 0.0507812 3.265625 -0.3125 C 2.609375 -0.6875 2.09375 -1.207031 1.71875 -1.875 C 1.351562 -2.539062 1.171875 -3.3125 1.171875 -4.1875 L 1.171875 -8.3125 C 1.171875 -9.207031 1.351562 -9.984375 1.71875 -10.640625 C 2.09375 -11.296875 2.609375 -11.804688 3.265625 -12.171875 C 3.921875 -12.546875 4.695312 -12.734375 5.59375 -12.734375 C 6.476562 -12.734375 7.25 -12.546875 7.90625 -12.171875 C 8.570312 -11.804688 9.085938 -11.296875 9.453125 -10.640625 C 9.828125 -9.984375 10.015625 -9.207031 10.015625 -8.3125 L 10.015625 -4.1875 C 10.015625 -3.3125 9.828125 -2.539062 9.453125 -1.875 C 9.085938 -1.207031 8.570312 -0.6875 7.90625 -0.3125 C 7.25 0.0507812 6.476562 0.234375 5.59375 0.234375 Z M 5.59375 -0.65625 C 6.300781 -0.65625 6.921875 -0.800781 7.453125 -1.09375 C 7.984375 -1.382812 8.394531 -1.796875 8.6875 -2.328125 C 8.976562 -2.867188 9.125 -3.488281 9.125 -4.1875 L 9.125 -8.3125 C 9.125 -9.03125 8.976562 -9.648438 8.6875 -10.171875 C 8.394531 -10.703125 7.984375 -11.113281 7.453125 -11.40625 C 6.921875 -11.695312 6.300781 -11.84375 5.59375 -11.84375 C 4.882812 -11.84375 4.265625 -11.695312 3.734375 -11.40625 C 3.203125 -11.113281 2.789062 -10.703125 2.5 -10.171875 C 2.207031 -9.648438 2.0625 -9.03125 2.0625 -8.3125 L 2.0625 -4.1875 C 2.0625 -3.488281 2.207031 -2.867188 2.5 -2.328125 C 2.789062 -1.796875 3.203125 -1.382812 3.734375 -1.09375 C 4.265625 -0.800781 4.882812 -0.65625 5.59375 -0.65625 Z M 5.59375 -0.65625 "/></g></g></g><g fill="#fec900" fill-opacity="1"><g transform="translate(23.648471, 19.391296)"><g><path d="M 1.78125 0.234375 C 1.664062 0.234375 1.5625 0.191406 1.46875 0.109375 C 1.375 0.0234375 1.328125 -0.078125 1.328125 -0.203125 L 1.328125 -12.296875 C 1.328125 -12.503906 1.441406 -12.648438 1.671875 -12.734375 C 1.890625 -12.796875 2.054688 -12.722656 2.171875 -12.515625 L 6.4375 -5.078125 L 10.703125 -12.515625 C 10.753906 -12.617188 10.828125 -12.6875 10.921875 -12.71875 C 11.023438 -12.75 11.117188 -12.753906 11.203125 -12.734375 C 11.429688 -12.648438 11.546875 -12.503906 11.546875 -12.296875 L 11.546875 -0.203125 C 11.546875 -0.078125 11.5 0.0234375 11.40625 0.109375 C 11.320312 0.191406 11.210938 0.234375 11.078125 0.234375 C 10.960938 0.234375 10.863281 0.191406 10.78125 0.109375 C 10.695312 0.0234375 10.65625 -0.078125 10.65625 -0.203125 L 10.65625 -10.640625 L 6.828125 -3.96875 C 6.753906 -3.8125 6.625 -3.734375 6.4375 -3.734375 C 6.269531 -3.734375 6.132812 -3.8125 6.03125 -3.96875 L 2.21875 -10.640625 L 2.21875 -0.203125 C 2.21875 -0.078125 2.175781 0.0234375 2.09375 0.109375 C 2.019531 0.191406 1.914062 0.234375 1.78125 0.234375 Z M 1.78125 0.234375 "/></g></g></g><g fill="#fec900" fill-opacity="1"><g transform="translate(36.526317, 19.391296)"><g><path d="M 1.78125 0 C 1.664062 0 1.5625 -0.0390625 1.46875 -0.125 C 1.375 -0.21875 1.328125 -0.320312 1.328125 -0.4375 L 1.328125 -12.015625 C 1.328125 -12.140625 1.375 -12.242188 1.46875 -12.328125 C 1.5625 -12.421875 1.664062 -12.46875 1.78125 -12.46875 L 8.03125 -12.46875 C 8.164062 -12.46875 8.273438 -12.421875 8.359375 -12.328125 C 8.441406 -12.242188 8.484375 -12.140625 8.484375 -12.015625 C 8.484375 -11.898438 8.441406 -11.796875 8.359375 -11.703125 C 8.273438 -11.617188 8.164062 -11.578125 8.03125 -11.578125 L 2.21875 -11.578125 L 2.21875 -6.78125 L 7.046875 -6.78125 C 7.171875 -6.78125 7.273438 -6.738281 7.359375 -6.65625 C 7.453125 -6.570312 7.5 -6.46875 7.5 -6.34375 C 7.5 -6.21875 7.453125 -6.109375 7.359375 -6.015625 C 7.273438 -5.929688 7.171875 -5.890625 7.046875 -5.890625 L 2.21875 -5.890625 L 2.21875 -0.890625 L 8.03125 -0.890625 C 8.164062 -0.890625 8.273438 -0.847656 8.359375 -0.765625 C 8.441406 -0.679688 8.484375 -0.570312 8.484375 -0.4375 C 8.484375 -0.320312 8.441406 -0.21875 8.359375 -0.125 C 8.273438 -0.0390625 8.164062 0 8.03125 0 Z M 1.78125 0 "/></g></g></g><g fill="#fec900" fill-opacity="1"><g transform="translate(46.019944, 19.391296)"><g/></g></g><g fill="#fec900" fill-opacity="1"><g transform="translate(50.829098, 19.391296)"><g><path d="M 1.78125 0.234375 C 1.664062 0.234375 1.5625 0.191406 1.46875 0.109375 C 1.375 0.0234375 1.328125 -0.078125 1.328125 -0.203125 L 1.328125 -12.296875 C 1.328125 -12.410156 1.375 -12.507812 1.46875 -12.59375 C 1.5625 -12.6875 1.664062 -12.734375 1.78125 -12.734375 C 1.914062 -12.734375 2.019531 -12.6875 2.09375 -12.59375 C 2.175781 -12.507812 2.21875 -12.410156 2.21875 -12.296875 L 2.21875 -6.984375 L 8.75 -6.984375 L 8.75 -12.296875 C 8.75 -12.410156 8.789062 -12.507812 8.875 -12.59375 C 8.96875 -12.6875 9.070312 -12.734375 9.1875 -12.734375 C 9.320312 -12.734375 9.425781 -12.6875 9.5 -12.59375 C 9.582031 -12.507812 9.625 -12.410156 9.625 -12.296875 L 9.625 -0.203125 C 9.625 -0.078125 9.582031 0.0234375 9.5 0.109375 C 9.425781 0.191406 9.320312 0.234375 9.1875 0.234375 C 9.070312 0.234375 8.96875 0.191406 8.875 0.109375 C 8.789062 0.0234375 8.75 -0.078125 8.75 -0.203125 L 8.75 -6.09375 L 2.21875 -6.09375 L 2.21875 -0.203125 C 2.21875 -0.078125 2.175781 0.0234375 2.09375 0.109375 C 2.019531 0.191406 1.914062 0.234375 1.78125 0.234375 Z M 1.78125 0.234375 "/></g></g></g><g fill="#fec900" fill-opacity="1"><g transform="translate(61.801111, 19.391296)"><g><path d="M 1.78125 0 C 1.664062 0 1.5625 -0.0390625 1.46875 -0.125 C 1.375 -0.21875 1.328125 -0.320312 1.328125 -0.4375 L 1.328125 -12.015625 C 1.328125 -12.140625 1.375 -12.242188 1.46875 -12.328125 C 1.5625 -12.421875 1.664062 -12.46875 1.78125 -12.46875 L 8.03125 -12.46875 C 8.164062 -12.46875 8.273438 -12.421875 8.359375 -12.328125 C 8.441406 -12.242188 8.484375 -12.140625 8.484375 -12.015625 C 8.484375 -11.898438 8.441406 -11.796875 8.359375 -11.703125 C 8.273438 -11.617188 8.164062 -11.578125 8.03125 -11.578125 L 2.21875 -11.578125 L 2.21875 -6.78125 L 7.046875 -6.78125 C 7.171875 -6.78125 7.273438 -6.738281 7.359375 -6.65625 C 7.453125 -6.570312 7.5 -6.46875 7.5 -6.34375 C 7.5 -6.21875 7.453125 -6.109375 7.359375 -6.015625 C 7.273438 -5.929688 7.171875 -5.890625 7.046875 -5.890625 L 2.21875 -5.890625 L 2.21875 -0.890625 L 8.03125 -0.890625 C 8.164062 -0.890625 8.273438 -0.847656 8.359375 -0.765625 C 8.441406 -0.679688 8.484375 -0.570312 8.484375 -0.4375 C 8.484375 -0.320312 8.441406 -0.21875 8.359375 -0.125 C 8.273438 -0.0390625 8.164062 0 8.03125 0 Z M 1.78125 0 "/></g></g></g><g fill="#fec900" fill-opacity="1"><g transform="translate(71.294738, 19.391296)"><g><path d="M 0.96875 0.140625 C 0.84375 0.109375 0.753906 0.0351562 0.703125 -0.078125 C 0.660156 -0.191406 0.664062 -0.304688 0.71875 -0.421875 L 5.1875 -12.484375 C 5.269531 -12.671875 5.410156 -12.765625 5.609375 -12.765625 C 5.804688 -12.765625 5.945312 -12.671875 6.03125 -12.484375 L 10.53125 -0.421875 C 10.570312 -0.304688 10.566406 -0.191406 10.515625 -0.078125 C 10.460938 0.0351562 10.378906 0.109375 10.265625 0.140625 C 10.148438 0.191406 10.035156 0.1875 9.921875 0.125 C 9.816406 0.0703125 9.738281 -0.0078125 9.6875 -0.125 L 5.609375 -11.046875 L 3.140625 -4.4375 L 6.5 -4.4375 C 6.613281 -4.4375 6.710938 -4.390625 6.796875 -4.296875 C 6.878906 -4.210938 6.921875 -4.101562 6.921875 -3.96875 C 6.921875 -3.851562 6.878906 -3.753906 6.796875 -3.671875 C 6.710938 -3.585938 6.613281 -3.546875 6.5 -3.546875 L 2.796875 -3.546875 L 1.53125 -0.125 C 1.476562 -0.0078125 1.398438 0.0703125 1.296875 0.125 C 1.191406 0.1875 1.082031 0.191406 0.96875 0.140625 Z M 0.96875 0.140625 "/></g></g></g><g fill="#fec900" fill-opacity="1"><g transform="translate(82.516112, 19.391296)"><g><path d="M 1.78125 0 C 1.664062 0 1.5625 -0.0390625 1.46875 -0.125 C 1.375 -0.21875 1.328125 -0.320312 1.328125 -0.4375 L 1.328125 -12.265625 C 1.328125 -12.398438 1.375 -12.507812 1.46875 -12.59375 C 1.5625 -12.6875 1.664062 -12.734375 1.78125 -12.734375 C 1.914062 -12.734375 2.019531 -12.6875 2.09375 -12.59375 C 2.175781 -12.507812 2.21875 -12.398438 2.21875 -12.265625 L 2.21875 -0.890625 L 8.03125 -0.890625 C 8.164062 -0.890625 8.273438 -0.847656 8.359375 -0.765625 C 8.441406 -0.679688 8.484375 -0.570312 8.484375 -0.4375 C 8.484375 -0.320312 8.441406 -0.21875 8.359375 -0.125 C 8.273438 -0.0390625 8.164062 0 8.03125 0 Z M 1.78125 0 "/></g></g></g><g fill="#fec900" fill-opacity="1"><g transform="translate(91.671324, 19.391296)"><g><path d="M 5.4375 0.25 C 5.300781 0.25 5.1875 0.207031 5.09375 0.125 C 5.007812 0.0390625 4.96875 -0.0546875 4.96875 -0.171875 L 4.96875 -11.578125 L 1.109375 -11.578125 C 0.984375 -11.578125 0.878906 -11.617188 0.796875 -11.703125 C 0.710938 -11.796875 0.671875 -11.898438 0.671875 -12.015625 C 0.671875 -12.140625 0.710938 -12.242188 0.796875 -12.328125 C 0.878906 -12.421875 0.984375 -12.46875 1.109375 -12.46875 L 9.71875 -12.46875 C 9.84375 -12.46875 9.945312 -12.421875 10.03125 -12.328125 C 10.125 -12.242188 10.171875 -12.140625 10.171875 -12.015625 C 10.171875 -11.898438 10.125 -11.796875 10.03125 -11.703125 C 9.945312 -11.617188 9.84375 -11.578125 9.71875 -11.578125 L 5.859375 -11.578125 L 5.859375 -0.171875 C 5.859375 -0.0546875 5.816406 0.0390625 5.734375 0.125 C 5.648438 0.207031 5.550781 0.25 5.4375 0.25 Z M 5.4375 0.25 "/></g></g></g><g fill="#fec900" fill-opacity="1"><g transform="translate(102.500833, 19.391296)"><g><path d="M 1.78125 0.234375 C 1.664062 0.234375 1.5625 0.191406 1.46875 0.109375 C 1.375 0.0234375 1.328125 -0.078125 1.328125 -0.203125 L 1.328125 -12.296875 C 1.328125 -12.410156 1.375 -12.507812 1.46875 -12.59375 C 1.5625 -12.6875 1.664062 -12.734375 1.78125 -12.734375 C 1.914062 -12.734375 2.019531 -12.6875 2.09375 -12.59375 C 2.175781 -12.507812 2.21875 -12.410156 2.21875 -12.296875 L 2.21875 -6.984375 L 8.75 -6.984375 L 8.75 -12.296875 C 8.75 -12.410156 8.789062 -12.507812 8.875 -12.59375 C 8.96875 -12.6875 9.070312 -12.734375 9.1875 -12.734375 C 9.320312 -12.734375 9.425781 -12.6875 9.5 -12.59375 C 9.582031 -12.507812 9.625 -12.410156 9.625 -12.296875 L 9.625 -0.203125 C 9.625 -0.078125 9.582031 0.0234375 9.5 0.109375 C 9.425781 0.191406 9.320312 0.234375 9.1875 0.234375 C 9.070312 0.234375 8.96875 0.191406 8.875 0.109375 C 8.789062 0.0234375 8.75 -0.078125 8.75 -0.203125 L 8.75 -6.09375 L 2.21875 -6.09375 L 2.21875 -0.203125 C 2.21875 -0.078125 2.175781 0.0234375 2.09375 0.109375 C 2.019531 0.191406 1.914062 0.234375 1.78125 0.234375 Z M 1.78125 0.234375 "/></g></g></g></g></g></g><path stroke-linecap="butt" transform="matrix(1.93454, 0, 0, 1.93454, 190.375857, 152.574036)" fill="none" stroke-linejoin="miter" d="M -0.000442933 0.999605 L 17.802967 0.999605 " stroke="#ffffff" stroke-width="2" stroke-opacity="1" stroke-miterlimit="4"/><g clip-path="url(#a926d17759)"><path fill="#fec900" d="M 146.78125 75.109375 C 137.855469 74.390625 126.484375 71.777344 119.273438 67.429688 C 120.105469 66.976562 121.261719 66.316406 122.640625 65.441406 C 125.34375 63.71875 129.230469 60.949219 132.390625 57.539062 C 133.753906 56.0625 134.863281 54.394531 135.683594 52.578125 C 136.503906 50.765625 137.015625 48.847656 137.210938 46.878906 C 137.273438 46.242188 137.3125 45.679688 137.328125 45.199219 C 137.378906 43.457031 137.054688 41.746094 136.371094 40.121094 C 135.71875 38.566406 134.765625 37.160156 133.542969 35.945312 C 132.320312 34.734375 130.898438 33.773438 129.308594 33.101562 C 127.644531 32.394531 125.886719 32.035156 124.082031 32.035156 L 124.042969 32.035156 C 120.902344 32.046875 117.886719 33.121094 115.515625 35.074219 C 113.132812 33.113281 110.097656 32.035156 106.945312 32.035156 C 105.589844 32.035156 104.230469 32.234375 102.894531 32.625 C 100.867188 33.214844 99.003906 34.296875 97.503906 35.753906 C 96.003906 37.207031 94.894531 39.011719 94.289062 40.96875 C 94.0625 41.703125 93.898438 42.546875 93.804688 43.480469 C 93.269531 48.800781 95.191406 54.128906 99.082031 58.097656 C 102.261719 61.347656 106.074219 63.972656 108.714844 65.605469 C 109.96875 66.382812 111.027344 66.976562 111.820312 67.402344 C 104.613281 71.765625 93.214844 74.390625 84.269531 75.109375 L 84.269531 31.4375 L 87.667969 28.636719 L 92.378906 24.753906 L 115.726562 5.503906 L 136.214844 24.003906 L 137.046875 24.753906 L 141.347656 28.636719 L 141.503906 28.777344 L 146.78125 33.542969 Z M 115.871094 64.570312 C 115.792969 64.578125 115.710938 64.589844 115.632812 64.597656 C 115.601562 64.601562 115.5625 64.605469 115.527344 64.609375 L 115.523438 64.609375 C 115.484375 64.605469 115.449219 64.601562 115.417969 64.597656 C 115.390625 64.59375 115.367188 64.59375 115.339844 64.589844 C 114.519531 64.207031 112.824219 63.328125 110.738281 62.023438 C 108.371094 60.546875 104.960938 58.179688 102.140625 55.300781 C 99.089844 52.1875 97.578125 48.023438 98 43.875 C 98.066406 43.203125 98.175781 42.617188 98.324219 42.132812 C 99.160156 39.433594 101.324219 37.332031 104.113281 36.519531 C 105.050781 36.246094 106.003906 36.105469 106.945312 36.105469 C 110.015625 36.105469 112.851562 37.597656 114.53125 40.097656 C 114.746094 40.421875 115.113281 40.613281 115.515625 40.613281 C 115.914062 40.613281 116.28125 40.421875 116.5 40.097656 C 118.167969 37.609375 120.992188 36.117188 124.050781 36.105469 L 124.082031 36.105469 C 126.464844 36.105469 128.8125 37.082031 130.523438 38.785156 C 132.238281 40.488281 133.183594 42.785156 133.117188 45.085938 C 133.105469 45.472656 133.074219 45.945312 133.019531 46.492188 C 132.714844 49.570312 131.375 52.527344 129.25 54.824219 C 126.460938 57.839844 122.996094 60.324219 120.578125 61.878906 C 118.453125 63.246094 116.722656 64.164062 115.871094 64.570312 Z M 115.589844 64.699219 C 115.558594 64.6875 115.523438 64.671875 115.484375 64.65625 C 115.496094 64.652344 115.511719 64.652344 115.523438 64.648438 C 115.566406 64.652344 115.613281 64.660156 115.660156 64.667969 C 115.636719 64.679688 115.613281 64.691406 115.589844 64.699219 Z M 159.371094 39.59375 L 150.800781 31.855469 L 144.25 25.941406 C 144.253906 25.882812 144.253906 25.824219 144.253906 25.765625 L 144.253906 15.101562 C 144.253906 14.113281 143.425781 13.316406 142.40625 13.316406 L 138.0625 13.316406 C 137.042969 13.316406 136.214844 14.113281 136.214844 15.101562 L 136.214844 18.6875 L 117.160156 1.480469 C 116.414062 0.808594 115.261719 0.78125 114.484375 1.421875 L 86.1875 24.753906 L 80.25 29.648438 L 71.671875 36.71875 C 70.828125 37.417969 70.726562 38.640625 71.449219 39.457031 C 72.167969 40.273438 73.4375 40.371094 74.28125 39.675781 L 80.25 34.753906 L 80.25 77.089844 C 80.25 78.164062 81.152344 79.03125 82.261719 79.03125 L 83.664062 79.03125 C 83.664062 79.03125 84.144531 79.015625 84.269531 79.003906 C 89.855469 78.582031 96.113281 77.449219 101.542969 75.875 C 104.84375 74.917969 107.839844 73.808594 110.449219 72.570312 C 112.347656 71.671875 114.046875 70.703125 115.523438 69.679688 C 116.265625 70.191406 117.058594 70.691406 117.90625 71.171875 C 118.753906 71.65625 119.652344 72.121094 120.601562 72.570312 C 123.210938 73.808594 126.207031 74.917969 129.503906 75.875 C 134.9375 77.449219 141.195312 78.582031 146.78125 79.003906 C 146.90625 79.015625 147.386719 79.03125 147.386719 79.03125 L 148.789062 79.03125 C 149.898438 79.03125 150.800781 78.164062 150.800781 77.089844 L 150.800781 37.171875 L 156.625 42.433594 C 157.011719 42.78125 157.503906 42.957031 157.996094 42.957031 C 158.535156 42.957031 159.070312 42.75 159.464844 42.339844 C 160.222656 41.554688 160.179688 40.328125 159.371094 39.59375 " fill-opacity="1" fill-rule="nonzero"/></g><path fill="#fec900" d="M 119.988281 48.34375 L 117.53125 48.34375 L 117.53125 45.886719 C 117.53125 44.757812 116.617188 43.84375 115.488281 43.84375 C 114.355469 43.84375 113.441406 44.757812 113.441406 45.886719 L 113.441406 48.34375 L 110.984375 48.34375 C 109.855469 48.34375 108.9375 49.257812 108.9375 50.390625 C 108.9375 51.519531 109.855469 52.433594 110.984375 52.433594 L 113.441406 52.433594 L 113.441406 54.890625 C 113.441406 56.019531 114.355469 56.9375 115.488281 56.9375 C 116.617188 56.9375 117.53125 56.019531 117.53125 54.890625 L 117.53125 52.433594 L 119.988281 52.433594 C 121.117188 52.433594 122.035156 51.519531 122.035156 50.390625 C 122.035156 49.257812 121.117188 48.34375 119.988281 48.34375 " fill-opacity="1" fill-rule="nonzero"/></g></g></svg>