<svg xmlns="http://www.w3.org/2000/svg" xmlns:xlink="http://www.w3.org/1999/xlink" width="500" zoomAndPan="magnify" viewBox="0 0 375 225" height="300" preserveAspectRatio="xMidYMid meet" version="1.0"><defs><clipPath id="7368aa43b8"><path d="M 156.386719 85.273438 L 218.636719 85.273438 L 218.636719 140 L 156.386719 140 Z M 156.386719 85.273438 " clip-rule="nonzero"/></clipPath></defs><rect x="-37.5" width="450" fill="#ffffff" y="-22.5" height="270" fill-opacity="1"/><rect x="-37.5" width="450" fill="#10416e" y="-22.5" height="270" fill-opacity="1"/><g clip-path="url(#7368aa43b8)"><path fill="#fec900" d="M 209.253906 136.96875 C 203.050781 136.472656 195.144531 134.65625 190.132812 131.632812 C 190.710938 131.316406 191.515625 130.855469 192.472656 130.246094 C 194.351562 129.050781 197.054688 127.125 199.25 124.753906 C 200.199219 123.730469 200.96875 122.570312 201.542969 121.304688 C 202.109375 120.046875 202.46875 118.710938 202.601562 117.34375 C 202.648438 116.902344 202.675781 116.507812 202.683594 116.175781 C 202.71875 114.964844 202.496094 113.777344 202.019531 112.644531 C 201.566406 111.5625 200.902344 110.589844 200.054688 109.742188 C 199.203125 108.898438 198.214844 108.234375 197.109375 107.765625 C 195.953125 107.273438 194.730469 107.023438 193.476562 107.023438 L 193.445312 107.023438 C 191.265625 107.03125 189.167969 107.78125 187.519531 109.136719 C 185.859375 107.773438 183.753906 107.023438 181.558594 107.023438 C 180.621094 107.023438 179.671875 107.164062 178.742188 107.433594 C 177.335938 107.84375 176.039062 108.597656 174.996094 109.609375 C 173.953125 110.621094 173.179688 111.875 172.761719 113.234375 C 172.605469 113.746094 172.492188 114.332031 172.425781 114.980469 C 172.050781 118.679688 173.390625 122.382812 176.09375 125.144531 C 178.304688 127.402344 180.957031 129.230469 182.789062 130.363281 C 183.660156 130.902344 184.398438 131.316406 184.949219 131.613281 C 179.9375 134.648438 172.011719 136.472656 165.796875 136.96875 L 165.796875 106.609375 L 168.160156 104.660156 L 171.433594 101.960938 L 187.667969 88.578125 L 201.910156 101.4375 L 202.488281 101.960938 L 205.476562 104.660156 L 205.585938 104.757812 L 209.253906 108.070312 Z M 187.765625 129.644531 C 187.710938 129.648438 187.65625 129.65625 187.601562 129.664062 C 187.578125 129.664062 187.554688 129.667969 187.527344 129.671875 C 187.5 129.667969 187.472656 129.664062 187.449219 129.664062 C 187.433594 129.660156 187.414062 129.660156 187.398438 129.65625 C 186.828125 129.390625 185.648438 128.777344 184.199219 127.871094 C 182.550781 126.84375 180.179688 125.199219 178.21875 123.199219 C 176.097656 121.035156 175.050781 118.136719 175.339844 115.257812 C 175.386719 114.789062 175.464844 114.378906 175.566406 114.046875 C 176.148438 112.167969 177.652344 110.707031 179.589844 110.140625 C 180.242188 109.949219 180.90625 109.855469 181.558594 109.855469 C 183.695312 109.855469 185.667969 110.890625 186.832031 112.628906 C 186.984375 112.855469 187.242188 112.988281 187.519531 112.988281 C 187.796875 112.988281 188.050781 112.855469 188.203125 112.628906 C 189.363281 110.898438 191.328125 109.859375 193.453125 109.855469 L 193.476562 109.855469 C 195.128906 109.855469 196.761719 110.53125 197.953125 111.714844 C 199.144531 112.898438 199.800781 114.496094 199.757812 116.097656 C 199.75 116.367188 199.726562 116.695312 199.6875 117.074219 C 199.476562 119.214844 198.546875 121.269531 197.066406 122.867188 C 195.128906 124.964844 192.71875 126.691406 191.039062 127.773438 C 189.5625 128.722656 188.359375 129.363281 187.765625 129.644531 Z M 187.570312 129.734375 C 187.546875 129.722656 187.523438 129.714844 187.496094 129.703125 C 187.503906 129.699219 187.515625 129.699219 187.523438 129.699219 C 187.554688 129.703125 187.585938 129.707031 187.621094 129.710938 C 187.601562 129.71875 187.585938 129.726562 187.570312 129.734375 Z M 218.007812 112.277344 L 212.050781 106.898438 L 207.496094 102.785156 C 207.5 102.746094 207.5 102.707031 207.5 102.664062 L 207.5 95.25 C 207.5 94.5625 206.925781 94.007812 206.214844 94.007812 L 203.195312 94.007812 C 202.484375 94.007812 201.910156 94.5625 201.910156 95.25 L 201.910156 97.742188 L 188.664062 85.78125 C 188.144531 85.3125 187.34375 85.296875 186.800781 85.742188 L 167.128906 101.960938 L 163 105.363281 L 157.035156 110.28125 C 156.449219 110.765625 156.378906 111.617188 156.882812 112.183594 C 157.382812 112.75 158.265625 112.820312 158.851562 112.335938 L 163 108.914062 L 163 138.347656 C 163 139.09375 163.625 139.699219 164.398438 139.699219 L 165.375 139.699219 C 165.375 139.699219 165.707031 139.6875 165.796875 139.679688 C 169.679688 139.382812 174.03125 138.597656 177.804688 137.503906 C 180.097656 136.839844 182.179688 136.066406 183.996094 135.207031 C 185.316406 134.582031 186.496094 133.90625 187.527344 133.195312 C 188.039062 133.550781 188.59375 133.898438 189.179688 134.234375 C 189.769531 134.570312 190.394531 134.894531 191.054688 135.207031 C 192.871094 136.066406 194.953125 136.839844 197.246094 137.503906 C 201.019531 138.597656 205.371094 139.382812 209.253906 139.679688 C 209.34375 139.6875 209.675781 139.699219 209.675781 139.699219 L 210.652344 139.699219 C 211.425781 139.699219 212.050781 139.09375 212.050781 138.347656 L 212.050781 110.59375 L 216.101562 114.25 C 216.371094 114.496094 216.710938 114.617188 217.054688 114.617188 C 217.425781 114.617188 217.800781 114.472656 218.074219 114.1875 C 218.601562 113.640625 218.570312 112.789062 218.007812 112.277344 " fill-opacity="1" fill-rule="nonzero"/></g><path fill="#fec900" d="M 190.628906 118.363281 L 188.921875 118.363281 L 188.921875 116.65625 C 188.921875 115.867188 188.285156 115.230469 187.5 115.230469 C 186.714844 115.230469 186.078125 115.867188 186.078125 116.65625 L 186.078125 118.363281 L 184.371094 118.363281 C 183.582031 118.363281 182.945312 119 182.945312 119.785156 C 182.945312 120.570312 183.582031 121.207031 184.371094 121.207031 L 186.078125 121.207031 L 186.078125 122.914062 C 186.078125 123.699219 186.714844 124.335938 187.5 124.335938 C 188.285156 124.335938 188.921875 123.699219 188.921875 122.914062 L 188.921875 121.207031 L 190.628906 121.207031 C 191.414062 121.207031 192.050781 120.570312 192.050781 119.785156 C 192.050781 119 191.414062 118.363281 190.628906 118.363281 " fill-opacity="1" fill-rule="nonzero"/></svg>