<svg xmlns="http://www.w3.org/2000/svg" xmlns:xlink="http://www.w3.org/1999/xlink" width="500" zoomAndPan="magnify" viewBox="0 0 375 225" height="300" preserveAspectRatio="xMidYMid meet" version="1.0"><defs><g/><clipPath id="7afd665e03"><path d="M 0.199219 89 L 287.960938 89 L 287.960938 180 L 0.199219 180 Z M 0.199219 89 " clip-rule="nonzero"/></clipPath><clipPath id="9e80ad5ca2"><rect x="0" width="288" y="0" height="91"/></clipPath><clipPath id="2705298a08"><path d="M 73 175 L 215 175 L 215 207.441406 L 73 207.441406 Z M 73 175 " clip-rule="nonzero"/></clipPath><clipPath id="2bef40a951"><rect x="0" width="142" y="0" height="33"/></clipPath><clipPath id="67854de774"><path d="M 88.542969 0.558594 L 199.78125 0.558594 L 199.78125 97.039062 L 88.542969 97.039062 Z M 88.542969 0.558594 " clip-rule="nonzero"/></clipPath><clipPath id="2f3ce5e6b5"><rect x="0" width="288" y="0" height="208"/></clipPath></defs><rect x="-37.5" width="450" fill="#ffffff" y="-22.5" height="270" fill-opacity="1"/><rect x="-37.5" width="450" fill="#0c1929" y="-22.5" height="270" fill-opacity="1"/><g transform="matrix(1, 0, 0, 1, 43, 10)"><g clip-path="url(#2f3ce5e6b5)"><path stroke-linecap="butt" transform="matrix(2.418174, 0, 0, 2.418174, 7.854147, 189.096759)" fill="none" stroke-linejoin="miter" d="M 0.00054659 1.000286 L 17.803555 1.000286 " stroke="#ffffff" stroke-width="2" stroke-opacity="1" stroke-miterlimit="4"/><g clip-path="url(#7afd665e03)"><g transform="matrix(1, 0, 0, 1, 0, 89)"><g clip-path="url(#9e80ad5ca2)"><g fill="#ffffff" fill-opacity="1"><g transform="translate(1.37016, 71.284814)"><g><path d="M 6.28125 0.8125 C 5.863281 0.8125 5.5 0.664062 5.1875 0.375 C 4.875 0.0820312 4.71875 -0.269531 4.71875 -0.6875 L 4.71875 -43.375 C 4.71875 -44.125 5.113281 -44.644531 5.90625 -44.9375 C 6.664062 -45.15625 7.253906 -44.90625 7.671875 -44.1875 L 22.6875 -17.921875 L 37.78125 -44.1875 C 37.945312 -44.519531 38.207031 -44.75 38.5625 -44.875 C 38.914062 -45 39.238281 -45.019531 39.53125 -44.9375 C 40.332031 -44.644531 40.734375 -44.125 40.734375 -43.375 L 40.734375 -0.6875 C 40.734375 -0.269531 40.578125 0.0820312 40.265625 0.375 C 39.953125 0.664062 39.5625 0.8125 39.09375 0.8125 C 38.675781 0.8125 38.320312 0.664062 38.03125 0.375 C 37.738281 0.0820312 37.59375 -0.269531 37.59375 -0.6875 L 37.59375 -37.53125 L 24.078125 -14.015625 C 23.828125 -13.472656 23.363281 -13.203125 22.6875 -13.203125 C 22.101562 -13.203125 21.644531 -13.472656 21.3125 -14.015625 L 7.859375 -37.53125 L 7.859375 -0.6875 C 7.859375 -0.269531 7.710938 0.0820312 7.421875 0.375 C 7.128906 0.664062 6.75 0.8125 6.28125 0.8125 Z M 6.28125 0.8125 "/></g></g></g><g fill="#ffffff" fill-opacity="1"><g transform="translate(46.798329, 71.284814)"><g><path d="M 3.390625 0.5 C 2.972656 0.375 2.679688 0.113281 2.515625 -0.28125 C 2.347656 -0.675781 2.347656 -1.085938 2.515625 -1.515625 L 18.296875 -44.0625 C 18.585938 -44.726562 19.085938 -45.0625 19.796875 -45.0625 C 20.515625 -45.0625 21.019531 -44.726562 21.3125 -44.0625 L 37.15625 -1.515625 C 37.320312 -1.085938 37.304688 -0.675781 37.109375 -0.28125 C 36.921875 0.113281 36.617188 0.375 36.203125 0.5 C 35.828125 0.664062 35.441406 0.65625 35.046875 0.46875 C 34.648438 0.28125 34.367188 -0.0195312 34.203125 -0.4375 L 19.796875 -38.96875 L 11.0625 -15.65625 L 22.9375 -15.65625 C 23.363281 -15.65625 23.722656 -15.492188 24.015625 -15.171875 C 24.304688 -14.859375 24.453125 -14.472656 24.453125 -14.015625 C 24.453125 -13.597656 24.304688 -13.242188 24.015625 -12.953125 C 23.722656 -12.660156 23.363281 -12.515625 22.9375 -12.515625 L 9.875 -12.515625 L 5.40625 -0.4375 C 5.238281 -0.0195312 4.960938 0.28125 4.578125 0.46875 C 4.203125 0.65625 3.804688 0.664062 3.390625 0.5 Z M 3.390625 0.5 "/></g></g></g><g fill="#ffffff" fill-opacity="1"><g transform="translate(86.383049, 71.284814)"><g><path d="M 6.28125 0.8125 C 5.863281 0.8125 5.5 0.664062 5.1875 0.375 C 4.875 0.0820312 4.71875 -0.269531 4.71875 -0.6875 L 4.71875 -43.375 C 4.71875 -44.164062 5.09375 -44.664062 5.84375 -44.875 C 6.601562 -45.09375 7.210938 -44.863281 7.671875 -44.1875 C 11.566406 -37.988281 14.90625 -32.6875 17.6875 -28.28125 C 20.476562 -23.882812 22.785156 -20.238281 24.609375 -17.34375 C 26.429688 -14.457031 27.863281 -12.1875 28.90625 -10.53125 C 29.957031 -8.875 30.691406 -7.707031 31.109375 -7.03125 C 31.535156 -6.363281 31.75 -6.03125 31.75 -6.03125 L 31.75 -43.375 C 31.75 -43.789062 31.914062 -44.15625 32.25 -44.46875 C 32.582031 -44.78125 32.957031 -44.9375 33.375 -44.9375 C 33.789062 -44.9375 34.144531 -44.78125 34.4375 -44.46875 C 34.738281 -44.15625 34.890625 -43.789062 34.890625 -43.375 L 34.890625 -0.6875 C 34.890625 0.0625 34.53125 0.539062 33.8125 0.75 C 33.0625 0.957031 32.457031 0.75 32 0.125 C 28.101562 -6.070312 24.769531 -11.367188 22 -15.765625 C 19.238281 -20.171875 16.9375 -23.816406 15.09375 -26.703125 C 13.25 -29.597656 11.800781 -31.875 10.75 -33.53125 C 9.695312 -35.1875 8.953125 -36.347656 8.515625 -37.015625 C 8.078125 -37.691406 7.859375 -38.03125 7.859375 -38.03125 L 7.859375 -0.6875 C 7.859375 -0.269531 7.710938 0.0820312 7.421875 0.375 C 7.128906 0.664062 6.75 0.8125 6.28125 0.8125 Z M 6.28125 0.8125 "/></g></g></g><g fill="#ffffff" fill-opacity="1"><g transform="translate(126.03061, 71.284814)"><g><path d="M 7.484375 0.8125 C 7.066406 0.8125 6.695312 0.664062 6.375 0.375 C 6.0625 0.0820312 5.90625 -0.269531 5.90625 -0.6875 L 5.90625 -43.3125 C 5.90625 -43.769531 6.0625 -44.15625 6.375 -44.46875 C 6.695312 -44.78125 7.066406 -44.9375 7.484375 -44.9375 C 7.941406 -44.9375 8.316406 -44.78125 8.609375 -44.46875 C 8.898438 -44.15625 9.046875 -43.769531 9.046875 -43.3125 L 9.046875 -0.6875 C 9.046875 -0.269531 8.898438 0.0820312 8.609375 0.375 C 8.316406 0.664062 7.941406 0.8125 7.484375 0.8125 Z M 7.484375 0.8125 "/></g></g></g><g fill="#ffffff" fill-opacity="1"><g transform="translate(141.047669, 71.284814)"><g><path d="M 19.734375 1.125 C 14.835938 1.125 11.015625 -0.242188 8.265625 -2.984375 C 5.523438 -5.734375 4.15625 -9.554688 4.15625 -14.453125 L 4.15625 -29.484375 C 4.15625 -34.378906 5.523438 -38.195312 8.265625 -40.9375 C 11.015625 -43.6875 14.835938 -45.0625 19.734375 -45.0625 C 22.128906 -45.0625 24.394531 -44.535156 26.53125 -43.484375 C 28.664062 -42.441406 30.46875 -40.976562 31.9375 -39.09375 C 32.226562 -38.757812 32.351562 -38.382812 32.3125 -37.96875 C 32.269531 -37.550781 32.082031 -37.191406 31.75 -36.890625 C 31.363281 -36.640625 30.953125 -36.546875 30.515625 -36.609375 C 30.078125 -36.671875 29.734375 -36.851562 29.484375 -37.15625 C 28.304688 -38.65625 26.859375 -39.820312 25.140625 -40.65625 C 23.421875 -41.5 21.617188 -41.921875 19.734375 -41.921875 C 15.835938 -41.921875 12.789062 -40.820312 10.59375 -38.625 C 8.394531 -36.425781 7.296875 -33.378906 7.296875 -29.484375 L 7.296875 -14.453125 C 7.296875 -10.554688 8.394531 -7.507812 10.59375 -5.3125 C 12.789062 -3.113281 15.835938 -2.015625 19.734375 -2.015625 C 21.617188 -2.015625 23.421875 -2.421875 25.140625 -3.234375 C 26.859375 -4.054688 28.304688 -5.21875 29.484375 -6.71875 C 29.734375 -7.0625 30.078125 -7.265625 30.515625 -7.328125 C 30.953125 -7.390625 31.363281 -7.273438 31.75 -6.984375 C 32.082031 -6.722656 32.269531 -6.375 32.3125 -5.9375 C 32.351562 -5.5 32.226562 -5.113281 31.9375 -4.78125 C 30.46875 -2.894531 28.664062 -1.4375 26.53125 -0.40625 C 24.394531 0.613281 22.128906 1.125 19.734375 1.125 Z M 19.734375 1.125 "/></g></g></g><g fill="#ffffff" fill-opacity="1"><g transform="translate(176.548244, 71.284814)"><g><path d="M 3.390625 0.5 C 2.972656 0.375 2.679688 0.113281 2.515625 -0.28125 C 2.347656 -0.675781 2.347656 -1.085938 2.515625 -1.515625 L 18.296875 -44.0625 C 18.585938 -44.726562 19.085938 -45.0625 19.796875 -45.0625 C 20.515625 -45.0625 21.019531 -44.726562 21.3125 -44.0625 L 37.15625 -1.515625 C 37.320312 -1.085938 37.304688 -0.675781 37.109375 -0.28125 C 36.921875 0.113281 36.617188 0.375 36.203125 0.5 C 35.828125 0.664062 35.441406 0.65625 35.046875 0.46875 C 34.648438 0.28125 34.367188 -0.0195312 34.203125 -0.4375 L 19.796875 -38.96875 L 11.0625 -15.65625 L 22.9375 -15.65625 C 23.363281 -15.65625 23.722656 -15.492188 24.015625 -15.171875 C 24.304688 -14.859375 24.453125 -14.472656 24.453125 -14.015625 C 24.453125 -13.597656 24.304688 -13.242188 24.015625 -12.953125 C 23.722656 -12.660156 23.363281 -12.515625 22.9375 -12.515625 L 9.875 -12.515625 L 5.40625 -0.4375 C 5.238281 -0.0195312 4.960938 0.28125 4.578125 0.46875 C 4.203125 0.65625 3.804688 0.664062 3.390625 0.5 Z M 3.390625 0.5 "/></g></g></g><g fill="#ffffff" fill-opacity="1"><g transform="translate(216.132965, 71.284814)"><g><path d="M 6.28125 0.875 C 5.863281 0.875 5.5 0.726562 5.1875 0.4375 C 4.875 0.144531 4.71875 -0.207031 4.71875 -0.625 L 4.71875 -42.4375 C 4.71875 -42.851562 4.875 -43.21875 5.1875 -43.53125 C 5.5 -43.84375 5.863281 -44 6.28125 -44 L 21.75 -44 C 24.09375 -44 26.21875 -43.421875 28.125 -42.265625 C 30.03125 -41.117188 31.5625 -39.59375 32.71875 -37.6875 C 33.875 -35.78125 34.453125 -33.671875 34.453125 -31.359375 C 34.453125 -29.390625 34.019531 -27.546875 33.15625 -25.828125 C 32.300781 -24.117188 31.140625 -22.664062 29.671875 -21.46875 C 28.203125 -20.269531 26.523438 -19.460938 24.640625 -19.046875 L 34.390625 -1.390625 C 34.597656 -0.960938 34.640625 -0.550781 34.515625 -0.15625 C 34.390625 0.238281 34.15625 0.539062 33.8125 0.75 C 33.394531 0.957031 32.988281 1 32.59375 0.875 C 32.195312 0.75 31.894531 0.5 31.6875 0.125 L 21.3125 -18.671875 L 12.125 -18.671875 C 11.707031 -18.671875 11.34375 -18.828125 11.03125 -19.140625 C 10.71875 -19.453125 10.5625 -19.816406 10.5625 -20.234375 C 10.5625 -20.703125 10.71875 -21.082031 11.03125 -21.375 C 11.34375 -21.664062 11.707031 -21.8125 12.125 -21.8125 L 21.75 -21.8125 C 23.507812 -21.8125 25.113281 -22.238281 26.5625 -23.09375 C 28.007812 -23.957031 29.160156 -25.113281 30.015625 -26.5625 C 30.867188 -28.007812 31.296875 -29.609375 31.296875 -31.359375 C 31.296875 -33.117188 30.867188 -34.710938 30.015625 -36.140625 C 29.160156 -37.566406 28.007812 -38.707031 26.5625 -39.5625 C 25.113281 -40.425781 23.507812 -40.859375 21.75 -40.859375 L 7.859375 -40.859375 L 7.859375 -0.625 C 7.859375 -0.207031 7.710938 0.144531 7.421875 0.4375 C 7.128906 0.726562 6.75 0.875 6.28125 0.875 Z M 6.28125 0.875 "/></g></g></g><g fill="#ffffff" fill-opacity="1"><g transform="translate(254.084037, 71.284814)"><g><path d="M 6.28125 0 C 5.863281 0 5.5 -0.15625 5.1875 -0.46875 C 4.875 -0.78125 4.71875 -1.148438 4.71875 -1.578125 L 4.71875 -42.4375 C 4.71875 -42.851562 4.875 -43.21875 5.1875 -43.53125 C 5.5 -43.84375 5.863281 -44 6.28125 -44 L 28.34375 -44 C 28.8125 -44 29.191406 -43.84375 29.484375 -43.53125 C 29.773438 -43.21875 29.921875 -42.851562 29.921875 -42.4375 C 29.921875 -42.007812 29.773438 -41.640625 29.484375 -41.328125 C 29.191406 -41.015625 28.8125 -40.859375 28.34375 -40.859375 L 7.859375 -40.859375 L 7.859375 -23.953125 L 24.890625 -23.953125 C 25.304688 -23.953125 25.671875 -23.800781 25.984375 -23.5 C 26.304688 -23.207031 26.46875 -22.832031 26.46875 -22.375 C 26.46875 -21.957031 26.304688 -21.59375 25.984375 -21.28125 C 25.671875 -20.96875 25.304688 -20.8125 24.890625 -20.8125 L 7.859375 -20.8125 L 7.859375 -3.140625 L 28.34375 -3.140625 C 28.8125 -3.140625 29.191406 -2.992188 29.484375 -2.703125 C 29.773438 -2.410156 29.921875 -2.035156 29.921875 -1.578125 C 29.921875 -1.148438 29.773438 -0.78125 29.484375 -0.46875 C 29.191406 -0.15625 28.8125 0 28.34375 0 Z M 6.28125 0 "/></g></g></g></g></g></g><g clip-path="url(#2705298a08)"><g transform="matrix(1, 0, 0, 1, 73, 175)"><g clip-path="url(#2bef40a951)"><g fill="#fec900" fill-opacity="1"><g transform="translate(1.488376, 24.864095)"><g><path d="M 2.234375 0.296875 C 2.078125 0.296875 1.941406 0.242188 1.828125 0.140625 C 1.722656 0.0351562 1.671875 -0.09375 1.671875 -0.25 L 1.671875 -15.359375 C 1.671875 -15.515625 1.722656 -15.644531 1.828125 -15.75 C 1.941406 -15.863281 2.078125 -15.921875 2.234375 -15.921875 C 2.390625 -15.921875 2.519531 -15.863281 2.625 -15.75 C 2.726562 -15.644531 2.78125 -15.515625 2.78125 -15.359375 L 2.78125 -8.734375 L 10.9375 -8.734375 L 10.9375 -15.359375 C 10.9375 -15.515625 10.988281 -15.644531 11.09375 -15.75 C 11.207031 -15.863281 11.335938 -15.921875 11.484375 -15.921875 C 11.648438 -15.921875 11.78125 -15.863281 11.875 -15.75 C 11.976562 -15.644531 12.03125 -15.515625 12.03125 -15.359375 L 12.03125 -0.25 C 12.03125 -0.09375 11.976562 0.0351562 11.875 0.140625 C 11.78125 0.242188 11.648438 0.296875 11.484375 0.296875 C 11.335938 0.296875 11.207031 0.242188 11.09375 0.140625 C 10.988281 0.0351562 10.9375 -0.09375 10.9375 -0.25 L 10.9375 -7.609375 L 2.78125 -7.609375 L 2.78125 -0.25 C 2.78125 -0.09375 2.726562 0.0351562 2.625 0.140625 C 2.519531 0.242188 2.390625 0.296875 2.234375 0.296875 Z M 2.234375 0.296875 "/></g></g></g><g fill="#fec900" fill-opacity="1"><g transform="translate(15.20339, 24.864095)"><g><path d="M 6.984375 0.296875 C 5.878906 0.296875 4.910156 0.0664062 4.078125 -0.390625 C 3.253906 -0.859375 2.613281 -1.503906 2.15625 -2.328125 C 1.695312 -3.160156 1.46875 -4.128906 1.46875 -5.234375 L 1.46875 -10.390625 C 1.46875 -11.503906 1.695312 -12.472656 2.15625 -13.296875 C 2.613281 -14.128906 3.253906 -14.773438 4.078125 -15.234375 C 4.910156 -15.691406 5.878906 -15.921875 6.984375 -15.921875 C 8.097656 -15.921875 9.066406 -15.691406 9.890625 -15.234375 C 10.722656 -14.773438 11.367188 -14.128906 11.828125 -13.296875 C 12.285156 -12.472656 12.515625 -11.503906 12.515625 -10.390625 L 12.515625 -5.234375 C 12.515625 -4.128906 12.285156 -3.160156 11.828125 -2.328125 C 11.367188 -1.503906 10.722656 -0.859375 9.890625 -0.390625 C 9.066406 0.0664062 8.097656 0.296875 6.984375 0.296875 Z M 6.984375 -0.828125 C 7.878906 -0.828125 8.65625 -1.007812 9.3125 -1.375 C 9.976562 -1.738281 10.492188 -2.253906 10.859375 -2.921875 C 11.222656 -3.585938 11.40625 -4.359375 11.40625 -5.234375 L 11.40625 -10.390625 C 11.40625 -11.285156 11.222656 -12.0625 10.859375 -12.71875 C 10.492188 -13.382812 9.976562 -13.898438 9.3125 -14.265625 C 8.65625 -14.628906 7.878906 -14.8125 6.984375 -14.8125 C 6.097656 -14.8125 5.320312 -14.628906 4.65625 -14.265625 C 4 -13.898438 3.488281 -13.382812 3.125 -12.71875 C 2.757812 -12.0625 2.578125 -11.285156 2.578125 -10.390625 L 2.578125 -5.234375 C 2.578125 -4.359375 2.757812 -3.585938 3.125 -2.921875 C 3.488281 -2.253906 4 -1.738281 4.65625 -1.375 C 5.320312 -1.007812 6.097656 -0.828125 6.984375 -0.828125 Z M 6.984375 -0.828125 "/></g></g></g><g fill="#fec900" fill-opacity="1"><g transform="translate(29.185572, 24.864095)"><g><path d="M 2.234375 0.296875 C 2.078125 0.296875 1.941406 0.242188 1.828125 0.140625 C 1.722656 0.0351562 1.671875 -0.09375 1.671875 -0.25 L 1.671875 -15.359375 C 1.671875 -15.628906 1.8125 -15.816406 2.09375 -15.921875 C 2.363281 -15.992188 2.570312 -15.90625 2.71875 -15.65625 L 8.03125 -6.34375 L 13.375 -15.65625 C 13.4375 -15.769531 13.53125 -15.847656 13.65625 -15.890625 C 13.78125 -15.941406 13.894531 -15.953125 14 -15.921875 C 14.28125 -15.816406 14.421875 -15.628906 14.421875 -15.359375 L 14.421875 -0.25 C 14.421875 -0.09375 14.363281 0.0351562 14.25 0.140625 C 14.144531 0.242188 14.007812 0.296875 13.84375 0.296875 C 13.695312 0.296875 13.570312 0.242188 13.46875 0.140625 C 13.363281 0.0351562 13.3125 -0.09375 13.3125 -0.25 L 13.3125 -13.296875 L 8.53125 -4.96875 C 8.4375 -4.769531 8.269531 -4.671875 8.03125 -4.671875 C 7.820312 -4.671875 7.660156 -4.769531 7.546875 -4.96875 L 2.78125 -13.296875 L 2.78125 -0.25 C 2.78125 -0.09375 2.726562 0.0351562 2.625 0.140625 C 2.519531 0.242188 2.390625 0.296875 2.234375 0.296875 Z M 2.234375 0.296875 "/></g></g></g><g fill="#fec900" fill-opacity="1"><g transform="translate(45.282877, 24.864095)"><g><path d="M 2.234375 0 C 2.078125 0 1.941406 -0.0507812 1.828125 -0.15625 C 1.722656 -0.269531 1.671875 -0.40625 1.671875 -0.5625 L 1.671875 -15.03125 C 1.671875 -15.175781 1.722656 -15.304688 1.828125 -15.421875 C 1.941406 -15.535156 2.078125 -15.59375 2.234375 -15.59375 L 10.046875 -15.59375 C 10.203125 -15.59375 10.332031 -15.535156 10.4375 -15.421875 C 10.539062 -15.304688 10.59375 -15.175781 10.59375 -15.03125 C 10.59375 -14.882812 10.539062 -14.753906 10.4375 -14.640625 C 10.332031 -14.523438 10.203125 -14.46875 10.046875 -14.46875 L 2.78125 -14.46875 L 2.78125 -8.484375 L 8.8125 -8.484375 C 8.96875 -8.484375 9.097656 -8.429688 9.203125 -8.328125 C 9.316406 -8.222656 9.375 -8.085938 9.375 -7.921875 C 9.375 -7.773438 9.316406 -7.644531 9.203125 -7.53125 C 9.097656 -7.425781 8.96875 -7.375 8.8125 -7.375 L 2.78125 -7.375 L 2.78125 -1.109375 L 10.046875 -1.109375 C 10.203125 -1.109375 10.332031 -1.054688 10.4375 -0.953125 C 10.539062 -0.847656 10.59375 -0.71875 10.59375 -0.5625 C 10.59375 -0.40625 10.539062 -0.269531 10.4375 -0.15625 C 10.332031 -0.0507812 10.203125 0 10.046875 0 Z M 2.234375 0 "/></g></g></g><g fill="#fec900" fill-opacity="1"><g transform="translate(57.149909, 24.864095)"><g/></g></g><g fill="#fec900" fill-opacity="1"><g transform="translate(63.16135, 24.864095)"><g><path d="M 2.234375 0.296875 C 2.078125 0.296875 1.941406 0.242188 1.828125 0.140625 C 1.722656 0.0351562 1.671875 -0.09375 1.671875 -0.25 L 1.671875 -15.359375 C 1.671875 -15.515625 1.722656 -15.644531 1.828125 -15.75 C 1.941406 -15.863281 2.078125 -15.921875 2.234375 -15.921875 C 2.390625 -15.921875 2.519531 -15.863281 2.625 -15.75 C 2.726562 -15.644531 2.78125 -15.515625 2.78125 -15.359375 L 2.78125 -8.734375 L 10.9375 -8.734375 L 10.9375 -15.359375 C 10.9375 -15.515625 10.988281 -15.644531 11.09375 -15.75 C 11.207031 -15.863281 11.335938 -15.921875 11.484375 -15.921875 C 11.648438 -15.921875 11.78125 -15.863281 11.875 -15.75 C 11.976562 -15.644531 12.03125 -15.515625 12.03125 -15.359375 L 12.03125 -0.25 C 12.03125 -0.09375 11.976562 0.0351562 11.875 0.140625 C 11.78125 0.242188 11.648438 0.296875 11.484375 0.296875 C 11.335938 0.296875 11.207031 0.242188 11.09375 0.140625 C 10.988281 0.0351562 10.9375 -0.09375 10.9375 -0.25 L 10.9375 -7.609375 L 2.78125 -7.609375 L 2.78125 -0.25 C 2.78125 -0.09375 2.726562 0.0351562 2.625 0.140625 C 2.519531 0.242188 2.390625 0.296875 2.234375 0.296875 Z M 2.234375 0.296875 "/></g></g></g><g fill="#fec900" fill-opacity="1"><g transform="translate(76.876365, 24.864095)"><g><path d="M 2.234375 0 C 2.078125 0 1.941406 -0.0507812 1.828125 -0.15625 C 1.722656 -0.269531 1.671875 -0.40625 1.671875 -0.5625 L 1.671875 -15.03125 C 1.671875 -15.175781 1.722656 -15.304688 1.828125 -15.421875 C 1.941406 -15.535156 2.078125 -15.59375 2.234375 -15.59375 L 10.046875 -15.59375 C 10.203125 -15.59375 10.332031 -15.535156 10.4375 -15.421875 C 10.539062 -15.304688 10.59375 -15.175781 10.59375 -15.03125 C 10.59375 -14.882812 10.539062 -14.753906 10.4375 -14.640625 C 10.332031 -14.523438 10.203125 -14.46875 10.046875 -14.46875 L 2.78125 -14.46875 L 2.78125 -8.484375 L 8.8125 -8.484375 C 8.96875 -8.484375 9.097656 -8.429688 9.203125 -8.328125 C 9.316406 -8.222656 9.375 -8.085938 9.375 -7.921875 C 9.375 -7.773438 9.316406 -7.644531 9.203125 -7.53125 C 9.097656 -7.425781 8.96875 -7.375 8.8125 -7.375 L 2.78125 -7.375 L 2.78125 -1.109375 L 10.046875 -1.109375 C 10.203125 -1.109375 10.332031 -1.054688 10.4375 -0.953125 C 10.539062 -0.847656 10.59375 -0.71875 10.59375 -0.5625 C 10.59375 -0.40625 10.539062 -0.269531 10.4375 -0.15625 C 10.332031 -0.0507812 10.203125 0 10.046875 0 Z M 2.234375 0 "/></g></g></g><g fill="#fec900" fill-opacity="1"><g transform="translate(88.743397, 24.864095)"><g><path d="M 1.203125 0.171875 C 1.054688 0.128906 0.953125 0.0390625 0.890625 -0.09375 C 0.828125 -0.238281 0.828125 -0.382812 0.890625 -0.53125 L 6.484375 -15.609375 C 6.585938 -15.847656 6.765625 -15.96875 7.015625 -15.96875 C 7.265625 -15.96875 7.441406 -15.847656 7.546875 -15.609375 L 13.15625 -0.53125 C 13.21875 -0.382812 13.210938 -0.238281 13.140625 -0.09375 C 13.078125 0.0390625 12.972656 0.128906 12.828125 0.171875 C 12.691406 0.234375 12.550781 0.226562 12.40625 0.15625 C 12.269531 0.09375 12.171875 -0.0078125 12.109375 -0.15625 L 7.015625 -13.8125 L 3.921875 -5.546875 L 8.125 -5.546875 C 8.269531 -5.546875 8.394531 -5.488281 8.5 -5.375 C 8.601562 -5.257812 8.65625 -5.125 8.65625 -4.96875 C 8.65625 -4.820312 8.601562 -4.695312 8.5 -4.59375 C 8.394531 -4.488281 8.269531 -4.4375 8.125 -4.4375 L 3.5 -4.4375 L 1.921875 -0.15625 C 1.859375 -0.0078125 1.757812 0.09375 1.625 0.15625 C 1.488281 0.226562 1.347656 0.234375 1.203125 0.171875 Z M 1.203125 0.171875 "/></g></g></g><g fill="#fec900" fill-opacity="1"><g transform="translate(102.770112, 24.864095)"><g><path d="M 2.234375 0 C 2.078125 0 1.941406 -0.0507812 1.828125 -0.15625 C 1.722656 -0.269531 1.671875 -0.40625 1.671875 -0.5625 L 1.671875 -15.34375 C 1.671875 -15.507812 1.722656 -15.644531 1.828125 -15.75 C 1.941406 -15.863281 2.078125 -15.921875 2.234375 -15.921875 C 2.390625 -15.921875 2.519531 -15.863281 2.625 -15.75 C 2.726562 -15.644531 2.78125 -15.507812 2.78125 -15.34375 L 2.78125 -1.109375 L 10.046875 -1.109375 C 10.203125 -1.109375 10.332031 -1.054688 10.4375 -0.953125 C 10.539062 -0.847656 10.59375 -0.71875 10.59375 -0.5625 C 10.59375 -0.40625 10.539062 -0.269531 10.4375 -0.15625 C 10.332031 -0.0507812 10.203125 0 10.046875 0 Z M 2.234375 0 "/></g></g></g><g fill="#fec900" fill-opacity="1"><g transform="translate(114.214125, 24.864095)"><g><path d="M 6.796875 0.3125 C 6.628906 0.3125 6.488281 0.257812 6.375 0.15625 C 6.269531 0.0507812 6.21875 -0.0703125 6.21875 -0.21875 L 6.21875 -14.46875 L 1.375 -14.46875 C 1.226562 -14.46875 1.101562 -14.523438 1 -14.640625 C 0.894531 -14.753906 0.84375 -14.882812 0.84375 -15.03125 C 0.84375 -15.175781 0.894531 -15.304688 1 -15.421875 C 1.101562 -15.535156 1.226562 -15.59375 1.375 -15.59375 L 12.15625 -15.59375 C 12.300781 -15.59375 12.429688 -15.535156 12.546875 -15.421875 C 12.660156 -15.304688 12.71875 -15.175781 12.71875 -15.03125 C 12.71875 -14.882812 12.660156 -14.753906 12.546875 -14.640625 C 12.429688 -14.523438 12.300781 -14.46875 12.15625 -14.46875 L 7.328125 -14.46875 L 7.328125 -0.21875 C 7.328125 -0.0703125 7.273438 0.0507812 7.171875 0.15625 C 7.066406 0.257812 6.941406 0.3125 6.796875 0.3125 Z M 6.796875 0.3125 "/></g></g></g><g fill="#fec900" fill-opacity="1"><g transform="translate(127.751008, 24.864095)"><g><path d="M 2.234375 0.296875 C 2.078125 0.296875 1.941406 0.242188 1.828125 0.140625 C 1.722656 0.0351562 1.671875 -0.09375 1.671875 -0.25 L 1.671875 -15.359375 C 1.671875 -15.515625 1.722656 -15.644531 1.828125 -15.75 C 1.941406 -15.863281 2.078125 -15.921875 2.234375 -15.921875 C 2.390625 -15.921875 2.519531 -15.863281 2.625 -15.75 C 2.726562 -15.644531 2.78125 -15.515625 2.78125 -15.359375 L 2.78125 -8.734375 L 10.9375 -8.734375 L 10.9375 -15.359375 C 10.9375 -15.515625 10.988281 -15.644531 11.09375 -15.75 C 11.207031 -15.863281 11.335938 -15.921875 11.484375 -15.921875 C 11.648438 -15.921875 11.78125 -15.863281 11.875 -15.75 C 11.976562 -15.644531 12.03125 -15.515625 12.03125 -15.359375 L 12.03125 -0.25 C 12.03125 -0.09375 11.976562 0.0351562 11.875 0.140625 C 11.78125 0.242188 11.648438 0.296875 11.484375 0.296875 C 11.335938 0.296875 11.207031 0.242188 11.09375 0.140625 C 10.988281 0.0351562 10.9375 -0.09375 10.9375 -0.25 L 10.9375 -7.609375 L 2.78125 -7.609375 L 2.78125 -0.25 C 2.78125 -0.09375 2.726562 0.0351562 2.625 0.140625 C 2.519531 0.242188 2.390625 0.296875 2.234375 0.296875 Z M 2.234375 0.296875 "/></g></g></g></g></g></g><path stroke-linecap="butt" transform="matrix(2.418174, 0, 0, 2.418174, 238.094773, 190.09253)" fill="none" stroke-linejoin="miter" d="M -0.000423083 1.000419 L 17.802585 1.000419 " stroke="#ffffff" stroke-width="2" stroke-opacity="1" stroke-miterlimit="4"/><g clip-path="url(#67854de774)"><path fill="#fec900" d="M 183.597656 93.261719 C 172.445312 92.367188 158.230469 89.097656 149.214844 83.660156 C 150.257812 83.09375 151.703125 82.269531 153.421875 81.175781 C 156.804688 79.023438 161.664062 75.5625 165.613281 71.296875 C 167.316406 69.457031 168.703125 67.371094 169.730469 65.097656 C 170.753906 62.832031 171.394531 60.433594 171.640625 57.972656 C 171.71875 57.179688 171.765625 56.472656 171.785156 55.875 C 171.847656 53.695312 171.445312 51.558594 170.589844 49.527344 C 169.773438 47.582031 168.582031 45.828125 167.054688 44.308594 C 165.527344 42.789062 163.746094 41.59375 161.761719 40.75 C 159.679688 39.867188 157.484375 39.421875 155.226562 39.421875 L 155.175781 39.421875 C 151.253906 39.433594 147.484375 40.777344 144.519531 43.21875 C 141.539062 40.765625 137.75 39.421875 133.804688 39.421875 C 132.113281 39.421875 130.410156 39.667969 128.742188 40.15625 C 126.210938 40.894531 123.878906 42.246094 122.003906 44.066406 C 120.132812 45.886719 118.742188 48.140625 117.984375 50.589844 C 117.703125 51.503906 117.5 52.5625 117.382812 53.726562 C 116.710938 60.375 119.113281 67.035156 123.976562 72 C 127.953125 76.058594 132.71875 79.34375 136.019531 81.382812 C 137.585938 82.351562 138.910156 83.097656 139.902344 83.628906 C 130.890625 89.082031 116.640625 92.363281 105.464844 93.261719 L 105.464844 38.671875 L 109.710938 35.171875 L 115.601562 30.316406 L 144.785156 6.253906 L 170.394531 29.378906 L 171.429688 30.316406 L 176.808594 35.171875 L 177.003906 35.347656 L 183.597656 41.304688 Z M 144.964844 80.089844 C 144.867188 80.101562 144.765625 80.109375 144.667969 80.121094 C 144.625 80.125 144.582031 80.128906 144.53125 80.136719 C 144.484375 80.132812 144.4375 80.125 144.394531 80.121094 C 144.363281 80.117188 144.332031 80.113281 144.300781 80.109375 C 143.273438 79.632812 141.15625 78.53125 138.546875 76.902344 C 135.589844 75.054688 131.324219 72.101562 127.800781 68.5 C 123.988281 64.609375 122.101562 59.402344 122.621094 54.222656 C 122.707031 53.378906 122.84375 52.644531 123.03125 52.042969 C 124.074219 48.664062 126.777344 46.042969 130.265625 45.023438 C 131.441406 44.683594 132.628906 44.507812 133.804688 44.507812 C 137.644531 44.507812 141.191406 46.375 143.289062 49.496094 C 143.558594 49.902344 144.019531 50.140625 144.515625 50.140625 C 145.015625 50.140625 145.476562 49.902344 145.75 49.496094 C 147.835938 46.382812 151.367188 44.519531 155.191406 44.507812 L 155.230469 44.507812 C 158.203125 44.507812 161.140625 45.730469 163.28125 47.855469 C 165.425781 49.984375 166.605469 52.855469 166.519531 55.734375 C 166.507812 56.214844 166.464844 56.804688 166.398438 57.488281 C 166.019531 61.335938 164.34375 65.035156 161.6875 67.90625 C 158.199219 71.671875 153.867188 74.78125 150.847656 76.722656 C 148.191406 78.429688 146.03125 79.582031 144.964844 80.089844 Z M 144.613281 80.25 C 144.570312 80.234375 144.527344 80.214844 144.480469 80.191406 C 144.496094 80.191406 144.511719 80.1875 144.527344 80.183594 C 144.585938 80.191406 144.644531 80.199219 144.699219 80.210938 C 144.667969 80.226562 144.640625 80.238281 144.613281 80.25 Z M 199.335938 48.867188 L 188.625 39.195312 L 180.4375 31.800781 C 180.441406 31.730469 180.441406 31.65625 180.441406 31.582031 L 180.441406 18.25 C 180.441406 17.019531 179.410156 16.019531 178.132812 16.019531 L 172.703125 16.019531 C 171.425781 16.019531 170.394531 17.019531 170.394531 18.25 L 170.394531 22.734375 L 146.574219 1.226562 C 145.640625 0.382812 144.203125 0.351562 143.230469 1.152344 L 107.859375 30.316406 L 100.4375 36.433594 L 89.714844 45.273438 C 88.660156 46.144531 88.535156 47.675781 89.433594 48.699219 C 90.335938 49.71875 91.921875 49.839844 92.976562 48.96875 L 100.4375 42.816406 L 100.4375 95.738281 C 100.4375 97.078125 101.5625 98.167969 102.949219 98.167969 L 104.707031 98.167969 C 104.707031 98.167969 105.304688 98.144531 105.464844 98.132812 C 112.445312 97.601562 120.265625 96.1875 127.054688 94.21875 C 131.179688 93.023438 134.921875 91.632812 138.183594 90.089844 C 140.558594 88.964844 142.679688 87.753906 144.53125 86.472656 C 145.457031 87.117188 146.449219 87.738281 147.507812 88.339844 C 148.566406 88.945312 149.691406 89.527344 150.878906 90.089844 C 154.140625 91.632812 157.882812 93.023438 162.007812 94.21875 C 168.792969 96.1875 176.617188 97.601562 183.597656 98.132812 C 183.757812 98.144531 184.355469 98.167969 184.355469 98.167969 L 186.113281 98.167969 C 187.5 98.167969 188.625 97.078125 188.625 95.738281 L 188.625 45.839844 L 195.90625 52.414062 C 196.390625 52.851562 197.007812 53.070312 197.621094 53.070312 C 198.292969 53.070312 198.960938 52.8125 199.457031 52.300781 C 200.40625 51.320312 200.351562 49.785156 199.335938 48.867188 " fill-opacity="1" fill-rule="nonzero"/></g><path fill="#fec900" d="M 150.109375 59.804688 L 147.042969 59.804688 L 147.042969 56.734375 C 147.042969 55.324219 145.894531 54.175781 144.484375 54.175781 C 143.070312 54.175781 141.925781 55.324219 141.925781 56.734375 L 141.925781 59.804688 L 138.855469 59.804688 C 137.445312 59.804688 136.300781 60.949219 136.300781 62.363281 C 136.300781 63.773438 137.445312 64.917969 138.855469 64.917969 L 141.925781 64.917969 L 141.925781 67.988281 C 141.925781 69.398438 143.070312 70.546875 144.484375 70.546875 C 145.894531 70.546875 147.042969 69.398438 147.042969 67.988281 L 147.042969 64.917969 L 150.109375 64.917969 C 151.523438 64.917969 152.667969 63.773438 152.667969 62.363281 C 152.667969 60.949219 151.523438 59.804688 150.109375 59.804688 " fill-opacity="1" fill-rule="nonzero"/></g></g></svg>