<svg xmlns="http://www.w3.org/2000/svg" xmlns:xlink="http://www.w3.org/1999/xlink" width="500" zoomAndPan="magnify" viewBox="0 0 375 225" height="300" preserveAspectRatio="xMidYMid meet" version="1.0"><defs><g/><clipPath id="89231996a8"><rect x="0" width="91" y="0" height="29"/></clipPath><clipPath id="3af1cc63d0"><rect x="0" width="45" y="0" height="11"/></clipPath><clipPath id="d56d473b65"><path d="M 170.144531 80.804688 L 204.644531 80.804688 L 204.644531 110.804688 L 170.144531 110.804688 Z M 170.144531 80.804688 " clip-rule="nonzero"/></clipPath></defs><rect x="-37.5" width="450" fill="#ffffff" y="-22.5" height="270" fill-opacity="1"/><rect x="-37.5" width="450" fill="#0c1929" y="-22.5" height="270" fill-opacity="1"/><path stroke-linecap="butt" transform="matrix(0.75, 0, 0, 0.75, 145.119104, 139.35809)" fill="none" stroke-linejoin="miter" d="M -0.0025558 1.001714 L 17.804737 1.001714 " stroke="#ffffff" stroke-width="2" stroke-opacity="1" stroke-miterlimit="4"/><g transform="matrix(1, 0, 0, 1, 142, 108)"><g clip-path="url(#89231996a8)"><g fill="#ffffff" fill-opacity="1"><g transform="translate(1.108083, 22.422041)"><g><path d="M 1.953125 0.25 C 1.816406 0.25 1.703125 0.203125 1.609375 0.109375 C 1.515625 0.0234375 1.46875 -0.0820312 1.46875 -0.21875 L 1.46875 -13.453125 C 1.46875 -13.691406 1.585938 -13.851562 1.828125 -13.9375 C 2.066406 -14.007812 2.25 -13.929688 2.375 -13.703125 L 7.046875 -5.5625 L 11.71875 -13.703125 C 11.769531 -13.804688 11.847656 -13.878906 11.953125 -13.921875 C 12.066406 -13.960938 12.171875 -13.96875 12.265625 -13.9375 C 12.515625 -13.851562 12.640625 -13.691406 12.640625 -13.453125 L 12.640625 -0.21875 C 12.640625 -0.0820312 12.585938 0.0234375 12.484375 0.109375 C 12.390625 0.203125 12.269531 0.25 12.125 0.25 C 12 0.25 11.890625 0.203125 11.796875 0.109375 C 11.703125 0.0234375 11.65625 -0.0820312 11.65625 -0.21875 L 11.65625 -11.640625 L 7.46875 -4.34375 C 7.382812 -4.175781 7.242188 -4.09375 7.046875 -4.09375 C 6.859375 -4.09375 6.710938 -4.175781 6.609375 -4.34375 L 2.4375 -11.640625 L 2.4375 -0.21875 C 2.4375 -0.0820312 2.390625 0.0234375 2.296875 0.109375 C 2.210938 0.203125 2.097656 0.25 1.953125 0.25 Z M 1.953125 0.25 "/></g></g></g><g fill="#ffffff" fill-opacity="1"><g transform="translate(15.197688, 22.422041)"><g><path d="M 1.046875 0.15625 C 0.921875 0.113281 0.832031 0.0351562 0.78125 -0.078125 C 0.726562 -0.203125 0.726562 -0.332031 0.78125 -0.46875 L 5.671875 -13.671875 C 5.765625 -13.878906 5.921875 -13.984375 6.140625 -13.984375 C 6.359375 -13.984375 6.515625 -13.878906 6.609375 -13.671875 L 11.53125 -0.46875 C 11.582031 -0.332031 11.578125 -0.203125 11.515625 -0.078125 C 11.453125 0.0351562 11.359375 0.113281 11.234375 0.15625 C 11.117188 0.207031 11 0.203125 10.875 0.140625 C 10.75 0.0859375 10.660156 -0.00390625 10.609375 -0.140625 L 6.140625 -12.09375 L 3.4375 -4.859375 L 7.125 -4.859375 C 7.25 -4.859375 7.351562 -4.804688 7.4375 -4.703125 C 7.53125 -4.609375 7.578125 -4.488281 7.578125 -4.34375 C 7.578125 -4.21875 7.53125 -4.109375 7.4375 -4.015625 C 7.351562 -3.921875 7.25 -3.875 7.125 -3.875 L 3.0625 -3.875 L 1.671875 -0.140625 C 1.617188 -0.00390625 1.535156 0.0859375 1.421875 0.140625 C 1.304688 0.203125 1.179688 0.207031 1.046875 0.15625 Z M 1.046875 0.15625 "/></g></g></g><g fill="#ffffff" fill-opacity="1"><g transform="translate(27.47494, 22.422041)"><g><path d="M 1.953125 0.25 C 1.816406 0.25 1.703125 0.203125 1.609375 0.109375 C 1.515625 0.0234375 1.46875 -0.0820312 1.46875 -0.21875 L 1.46875 -13.453125 C 1.46875 -13.703125 1.582031 -13.859375 1.8125 -13.921875 C 2.050781 -13.984375 2.238281 -13.910156 2.375 -13.703125 C 3.582031 -11.785156 4.617188 -10.144531 5.484375 -8.78125 C 6.347656 -7.414062 7.0625 -6.28125 7.625 -5.375 C 8.195312 -4.476562 8.644531 -3.773438 8.96875 -3.265625 C 9.289062 -2.753906 9.515625 -2.394531 9.640625 -2.1875 C 9.773438 -1.976562 9.84375 -1.875 9.84375 -1.875 L 9.84375 -13.453125 C 9.84375 -13.585938 9.894531 -13.703125 10 -13.796875 C 10.101562 -13.890625 10.222656 -13.9375 10.359375 -13.9375 C 10.484375 -13.9375 10.59375 -13.890625 10.6875 -13.796875 C 10.78125 -13.703125 10.828125 -13.585938 10.828125 -13.453125 L 10.828125 -0.21875 C 10.828125 0.0195312 10.710938 0.171875 10.484375 0.234375 C 10.253906 0.296875 10.066406 0.226562 9.921875 0.03125 C 8.710938 -1.882812 7.675781 -3.523438 6.8125 -4.890625 C 5.957031 -6.253906 5.242188 -7.382812 4.671875 -8.28125 C 4.109375 -9.1875 3.660156 -9.894531 3.328125 -10.40625 C 3.003906 -10.914062 2.773438 -11.273438 2.640625 -11.484375 C 2.503906 -11.691406 2.4375 -11.796875 2.4375 -11.796875 L 2.4375 -0.21875 C 2.4375 -0.0820312 2.390625 0.0234375 2.296875 0.109375 C 2.210938 0.203125 2.097656 0.25 1.953125 0.25 Z M 1.953125 0.25 "/></g></g></g><g fill="#ffffff" fill-opacity="1"><g transform="translate(39.771683, 22.422041)"><g><path d="M 2.328125 0.25 C 2.191406 0.25 2.070312 0.203125 1.96875 0.109375 C 1.875 0.0234375 1.828125 -0.0820312 1.828125 -0.21875 L 1.828125 -13.4375 C 1.828125 -13.582031 1.875 -13.703125 1.96875 -13.796875 C 2.070312 -13.890625 2.191406 -13.9375 2.328125 -13.9375 C 2.460938 -13.9375 2.578125 -13.890625 2.671875 -13.796875 C 2.765625 -13.703125 2.8125 -13.582031 2.8125 -13.4375 L 2.8125 -0.21875 C 2.8125 -0.0820312 2.765625 0.0234375 2.671875 0.109375 C 2.578125 0.203125 2.460938 0.25 2.328125 0.25 Z M 2.328125 0.25 "/></g></g></g><g fill="#ffffff" fill-opacity="1"><g transform="translate(44.429243, 22.422041)"><g><path d="M 6.125 0.34375 C 4.601562 0.34375 3.414062 -0.078125 2.5625 -0.921875 C 1.707031 -1.773438 1.28125 -2.960938 1.28125 -4.484375 L 1.28125 -9.140625 C 1.28125 -10.660156 1.707031 -11.847656 2.5625 -12.703125 C 3.414062 -13.554688 4.601562 -13.984375 6.125 -13.984375 C 6.863281 -13.984375 7.5625 -13.816406 8.21875 -13.484375 C 8.882812 -13.160156 9.445312 -12.707031 9.90625 -12.125 C 10 -12.019531 10.035156 -11.898438 10.015625 -11.765625 C 10.003906 -11.640625 9.945312 -11.535156 9.84375 -11.453125 C 9.726562 -11.367188 9.601562 -11.335938 9.46875 -11.359375 C 9.332031 -11.378906 9.222656 -11.4375 9.140625 -11.53125 C 8.773438 -11.988281 8.328125 -12.347656 7.796875 -12.609375 C 7.265625 -12.867188 6.707031 -13 6.125 -13 C 4.914062 -13 3.96875 -12.65625 3.28125 -11.96875 C 2.601562 -11.289062 2.265625 -10.347656 2.265625 -9.140625 L 2.265625 -4.484375 C 2.265625 -3.273438 2.601562 -2.328125 3.28125 -1.640625 C 3.96875 -0.960938 4.914062 -0.625 6.125 -0.625 C 6.707031 -0.625 7.265625 -0.75 7.796875 -1 C 8.328125 -1.257812 8.773438 -1.625 9.140625 -2.09375 C 9.222656 -2.195312 9.332031 -2.253906 9.46875 -2.265625 C 9.601562 -2.285156 9.726562 -2.253906 9.84375 -2.171875 C 9.945312 -2.085938 10.003906 -1.976562 10.015625 -1.84375 C 10.035156 -1.707031 10 -1.585938 9.90625 -1.484375 C 9.445312 -0.898438 8.882812 -0.445312 8.21875 -0.125 C 7.5625 0.1875 6.863281 0.34375 6.125 0.34375 Z M 6.125 0.34375 "/></g></g></g><g fill="#ffffff" fill-opacity="1"><g transform="translate(55.439792, 22.422041)"><g><path d="M 1.046875 0.15625 C 0.921875 0.113281 0.832031 0.0351562 0.78125 -0.078125 C 0.726562 -0.203125 0.726562 -0.332031 0.78125 -0.46875 L 5.671875 -13.671875 C 5.765625 -13.878906 5.921875 -13.984375 6.140625 -13.984375 C 6.359375 -13.984375 6.515625 -13.878906 6.609375 -13.671875 L 11.53125 -0.46875 C 11.582031 -0.332031 11.578125 -0.203125 11.515625 -0.078125 C 11.453125 0.0351562 11.359375 0.113281 11.234375 0.15625 C 11.117188 0.207031 11 0.203125 10.875 0.140625 C 10.75 0.0859375 10.660156 -0.00390625 10.609375 -0.140625 L 6.140625 -12.09375 L 3.4375 -4.859375 L 7.125 -4.859375 C 7.25 -4.859375 7.351562 -4.804688 7.4375 -4.703125 C 7.53125 -4.609375 7.578125 -4.488281 7.578125 -4.34375 C 7.578125 -4.21875 7.53125 -4.109375 7.4375 -4.015625 C 7.351562 -3.921875 7.25 -3.875 7.125 -3.875 L 3.0625 -3.875 L 1.671875 -0.140625 C 1.617188 -0.00390625 1.535156 0.0859375 1.421875 0.140625 C 1.304688 0.203125 1.179688 0.207031 1.046875 0.15625 Z M 1.046875 0.15625 "/></g></g></g><g fill="#ffffff" fill-opacity="1"><g transform="translate(67.717044, 22.422041)"><g><path d="M 1.953125 0.265625 C 1.816406 0.265625 1.703125 0.21875 1.609375 0.125 C 1.515625 0.0390625 1.46875 -0.0625 1.46875 -0.1875 L 1.46875 -13.15625 C 1.46875 -13.289062 1.515625 -13.40625 1.609375 -13.5 C 1.703125 -13.601562 1.816406 -13.65625 1.953125 -13.65625 L 6.75 -13.65625 C 7.476562 -13.65625 8.132812 -13.472656 8.71875 -13.109375 C 9.3125 -12.753906 9.785156 -12.28125 10.140625 -11.6875 C 10.503906 -11.09375 10.6875 -10.441406 10.6875 -9.734375 C 10.6875 -9.117188 10.550781 -8.546875 10.28125 -8.015625 C 10.019531 -7.484375 9.660156 -7.03125 9.203125 -6.65625 C 8.742188 -6.289062 8.222656 -6.039062 7.640625 -5.90625 L 10.671875 -0.421875 C 10.734375 -0.296875 10.742188 -0.171875 10.703125 -0.046875 C 10.660156 0.078125 10.585938 0.171875 10.484375 0.234375 C 10.359375 0.296875 10.234375 0.304688 10.109375 0.265625 C 9.984375 0.234375 9.890625 0.15625 9.828125 0.03125 L 6.609375 -5.796875 L 3.765625 -5.796875 C 3.628906 -5.796875 3.515625 -5.84375 3.421875 -5.9375 C 3.328125 -6.03125 3.28125 -6.144531 3.28125 -6.28125 C 3.28125 -6.425781 3.328125 -6.539062 3.421875 -6.625 C 3.515625 -6.71875 3.628906 -6.765625 3.765625 -6.765625 L 6.75 -6.765625 C 7.289062 -6.765625 7.785156 -6.894531 8.234375 -7.15625 C 8.679688 -7.425781 9.039062 -7.785156 9.3125 -8.234375 C 9.582031 -8.679688 9.71875 -9.179688 9.71875 -9.734375 C 9.71875 -10.273438 9.582031 -10.765625 9.3125 -11.203125 C 9.039062 -11.648438 8.679688 -12.003906 8.234375 -12.265625 C 7.785156 -12.535156 7.289062 -12.671875 6.75 -12.671875 L 2.4375 -12.671875 L 2.4375 -0.1875 C 2.4375 -0.0625 2.390625 0.0390625 2.296875 0.125 C 2.210938 0.21875 2.097656 0.265625 1.953125 0.265625 Z M 1.953125 0.265625 "/></g></g></g><g fill="#ffffff" fill-opacity="1"><g transform="translate(79.487618, 22.422041)"><g><path d="M 1.953125 0 C 1.816406 0 1.703125 -0.046875 1.609375 -0.140625 C 1.515625 -0.242188 1.46875 -0.359375 1.46875 -0.484375 L 1.46875 -13.15625 C 1.46875 -13.289062 1.515625 -13.40625 1.609375 -13.5 C 1.703125 -13.601562 1.816406 -13.65625 1.953125 -13.65625 L 8.796875 -13.65625 C 8.941406 -13.65625 9.054688 -13.601562 9.140625 -13.5 C 9.234375 -13.40625 9.28125 -13.289062 9.28125 -13.15625 C 9.28125 -13.03125 9.234375 -12.914062 9.140625 -12.8125 C 9.054688 -12.71875 8.941406 -12.671875 8.796875 -12.671875 L 2.4375 -12.671875 L 2.4375 -7.421875 L 7.71875 -7.421875 C 7.851562 -7.421875 7.96875 -7.375 8.0625 -7.28125 C 8.15625 -7.195312 8.203125 -7.082031 8.203125 -6.9375 C 8.203125 -6.8125 8.15625 -6.695312 8.0625 -6.59375 C 7.96875 -6.5 7.851562 -6.453125 7.71875 -6.453125 L 2.4375 -6.453125 L 2.4375 -0.96875 L 8.796875 -0.96875 C 8.941406 -0.96875 9.054688 -0.921875 9.140625 -0.828125 C 9.234375 -0.742188 9.28125 -0.628906 9.28125 -0.484375 C 9.28125 -0.359375 9.234375 -0.242188 9.140625 -0.140625 C 9.054688 -0.046875 8.941406 0 8.796875 0 Z M 1.953125 0 "/></g></g></g></g></g><g transform="matrix(1, 0, 0, 1, 165, 135)"><g clip-path="url(#3af1cc63d0)"><g fill="#fec900" fill-opacity="1"><g transform="translate(0.785803, 7.697604)"><g><path d="M 0.6875 0.09375 C 0.644531 0.09375 0.601562 0.078125 0.5625 0.046875 C 0.53125 0.015625 0.515625 -0.0234375 0.515625 -0.078125 L 0.515625 -4.765625 C 0.515625 -4.804688 0.53125 -4.84375 0.5625 -4.875 C 0.601562 -4.914062 0.644531 -4.9375 0.6875 -4.9375 C 0.738281 -4.9375 0.78125 -4.914062 0.8125 -4.875 C 0.84375 -4.84375 0.859375 -4.804688 0.859375 -4.765625 L 0.859375 -2.703125 L 3.390625 -2.703125 L 3.390625 -4.765625 C 3.390625 -4.804688 3.40625 -4.84375 3.4375 -4.875 C 3.476562 -4.914062 3.519531 -4.9375 3.5625 -4.9375 C 3.613281 -4.9375 3.65625 -4.914062 3.6875 -4.875 C 3.71875 -4.84375 3.734375 -4.804688 3.734375 -4.765625 L 3.734375 -0.078125 C 3.734375 -0.0234375 3.71875 0.015625 3.6875 0.046875 C 3.65625 0.078125 3.613281 0.09375 3.5625 0.09375 C 3.519531 0.09375 3.476562 0.078125 3.4375 0.046875 C 3.40625 0.015625 3.390625 -0.0234375 3.390625 -0.078125 L 3.390625 -2.359375 L 0.859375 -2.359375 L 0.859375 -0.078125 C 0.859375 -0.0234375 0.84375 0.015625 0.8125 0.046875 C 0.78125 0.078125 0.738281 0.09375 0.6875 0.09375 Z M 0.6875 0.09375 "/></g></g></g><g fill="#fec900" fill-opacity="1"><g transform="translate(5.039533, 7.697604)"><g><path d="M 2.171875 0.09375 C 1.828125 0.09375 1.523438 0.0195312 1.265625 -0.125 C 1.015625 -0.269531 0.816406 -0.46875 0.671875 -0.71875 C 0.523438 -0.976562 0.453125 -1.28125 0.453125 -1.625 L 0.453125 -3.21875 C 0.453125 -3.570312 0.523438 -3.875 0.671875 -4.125 C 0.816406 -4.382812 1.015625 -4.582031 1.265625 -4.71875 C 1.523438 -4.863281 1.828125 -4.9375 2.171875 -4.9375 C 2.515625 -4.9375 2.8125 -4.863281 3.0625 -4.71875 C 3.320312 -4.582031 3.519531 -4.382812 3.65625 -4.125 C 3.800781 -3.875 3.875 -3.570312 3.875 -3.21875 L 3.875 -1.625 C 3.875 -1.28125 3.800781 -0.976562 3.65625 -0.71875 C 3.519531 -0.46875 3.320312 -0.269531 3.0625 -0.125 C 2.8125 0.0195312 2.515625 0.09375 2.171875 0.09375 Z M 2.171875 -0.25 C 2.441406 -0.25 2.679688 -0.304688 2.890625 -0.421875 C 3.097656 -0.535156 3.253906 -0.695312 3.359375 -0.90625 C 3.472656 -1.113281 3.53125 -1.351562 3.53125 -1.625 L 3.53125 -3.21875 C 3.53125 -3.5 3.472656 -3.738281 3.359375 -3.9375 C 3.253906 -4.144531 3.097656 -4.304688 2.890625 -4.421875 C 2.679688 -4.535156 2.441406 -4.59375 2.171875 -4.59375 C 1.890625 -4.59375 1.644531 -4.535156 1.4375 -4.421875 C 1.238281 -4.304688 1.082031 -4.144531 0.96875 -3.9375 C 0.851562 -3.738281 0.796875 -3.5 0.796875 -3.21875 L 0.796875 -1.625 C 0.796875 -1.351562 0.851562 -1.113281 0.96875 -0.90625 C 1.082031 -0.695312 1.238281 -0.535156 1.4375 -0.421875 C 1.644531 -0.304688 1.890625 -0.25 2.171875 -0.25 Z M 2.171875 -0.25 "/></g></g></g><g fill="#fec900" fill-opacity="1"><g transform="translate(9.376125, 7.697604)"><g><path d="M 0.6875 0.09375 C 0.644531 0.09375 0.601562 0.078125 0.5625 0.046875 C 0.53125 0.015625 0.515625 -0.0234375 0.515625 -0.078125 L 0.515625 -4.765625 C 0.515625 -4.847656 0.5625 -4.90625 0.65625 -4.9375 C 0.738281 -4.957031 0.800781 -4.929688 0.84375 -4.859375 L 2.5 -1.96875 L 4.15625 -4.859375 C 4.164062 -4.890625 4.191406 -4.910156 4.234375 -4.921875 C 4.273438 -4.941406 4.3125 -4.945312 4.34375 -4.9375 C 4.425781 -4.90625 4.46875 -4.847656 4.46875 -4.765625 L 4.46875 -0.078125 C 4.46875 -0.0234375 4.453125 0.015625 4.421875 0.046875 C 4.390625 0.078125 4.347656 0.09375 4.296875 0.09375 C 4.253906 0.09375 4.210938 0.078125 4.171875 0.046875 C 4.140625 0.015625 4.125 -0.0234375 4.125 -0.078125 L 4.125 -4.125 L 2.640625 -1.546875 C 2.617188 -1.484375 2.570312 -1.453125 2.5 -1.453125 C 2.425781 -1.453125 2.375 -1.484375 2.34375 -1.546875 L 0.859375 -4.125 L 0.859375 -0.078125 C 0.859375 -0.0234375 0.84375 0.015625 0.8125 0.046875 C 0.78125 0.078125 0.738281 0.09375 0.6875 0.09375 Z M 0.6875 0.09375 "/></g></g></g><g fill="#fec900" fill-opacity="1"><g transform="translate(14.368725, 7.697604)"><g><path d="M 0.6875 0 C 0.644531 0 0.601562 -0.015625 0.5625 -0.046875 C 0.53125 -0.0859375 0.515625 -0.128906 0.515625 -0.171875 L 0.515625 -4.65625 C 0.515625 -4.707031 0.53125 -4.75 0.5625 -4.78125 C 0.601562 -4.8125 0.644531 -4.828125 0.6875 -4.828125 L 3.109375 -4.828125 C 3.160156 -4.828125 3.203125 -4.8125 3.234375 -4.78125 C 3.265625 -4.75 3.28125 -4.707031 3.28125 -4.65625 C 3.28125 -4.613281 3.265625 -4.570312 3.234375 -4.53125 C 3.203125 -4.5 3.160156 -4.484375 3.109375 -4.484375 L 0.859375 -4.484375 L 0.859375 -2.625 L 2.734375 -2.625 C 2.773438 -2.625 2.8125 -2.609375 2.84375 -2.578125 C 2.882812 -2.546875 2.90625 -2.503906 2.90625 -2.453125 C 2.90625 -2.410156 2.882812 -2.367188 2.84375 -2.328125 C 2.8125 -2.296875 2.773438 -2.28125 2.734375 -2.28125 L 0.859375 -2.28125 L 0.859375 -0.34375 L 3.109375 -0.34375 C 3.160156 -0.34375 3.203125 -0.328125 3.234375 -0.296875 C 3.265625 -0.265625 3.28125 -0.222656 3.28125 -0.171875 C 3.28125 -0.128906 3.265625 -0.0859375 3.234375 -0.046875 C 3.203125 -0.015625 3.160156 0 3.109375 0 Z M 0.6875 0 "/></g></g></g><g fill="#fec900" fill-opacity="1"><g transform="translate(18.049301, 7.697604)"><g/></g></g><g fill="#fec900" fill-opacity="1"><g transform="translate(19.913757, 7.697604)"><g><path d="M 0.6875 0.09375 C 0.644531 0.09375 0.601562 0.078125 0.5625 0.046875 C 0.53125 0.015625 0.515625 -0.0234375 0.515625 -0.078125 L 0.515625 -4.765625 C 0.515625 -4.804688 0.53125 -4.84375 0.5625 -4.875 C 0.601562 -4.914062 0.644531 -4.9375 0.6875 -4.9375 C 0.738281 -4.9375 0.78125 -4.914062 0.8125 -4.875 C 0.84375 -4.84375 0.859375 -4.804688 0.859375 -4.765625 L 0.859375 -2.703125 L 3.390625 -2.703125 L 3.390625 -4.765625 C 3.390625 -4.804688 3.40625 -4.84375 3.4375 -4.875 C 3.476562 -4.914062 3.519531 -4.9375 3.5625 -4.9375 C 3.613281 -4.9375 3.65625 -4.914062 3.6875 -4.875 C 3.71875 -4.84375 3.734375 -4.804688 3.734375 -4.765625 L 3.734375 -0.078125 C 3.734375 -0.0234375 3.71875 0.015625 3.6875 0.046875 C 3.65625 0.078125 3.613281 0.09375 3.5625 0.09375 C 3.519531 0.09375 3.476562 0.078125 3.4375 0.046875 C 3.40625 0.015625 3.390625 -0.0234375 3.390625 -0.078125 L 3.390625 -2.359375 L 0.859375 -2.359375 L 0.859375 -0.078125 C 0.859375 -0.0234375 0.84375 0.015625 0.8125 0.046875 C 0.78125 0.078125 0.738281 0.09375 0.6875 0.09375 Z M 0.6875 0.09375 "/></g></g></g><g fill="#fec900" fill-opacity="1"><g transform="translate(24.167487, 7.697604)"><g><path d="M 0.6875 0 C 0.644531 0 0.601562 -0.015625 0.5625 -0.046875 C 0.53125 -0.0859375 0.515625 -0.128906 0.515625 -0.171875 L 0.515625 -4.65625 C 0.515625 -4.707031 0.53125 -4.75 0.5625 -4.78125 C 0.601562 -4.8125 0.644531 -4.828125 0.6875 -4.828125 L 3.109375 -4.828125 C 3.160156 -4.828125 3.203125 -4.8125 3.234375 -4.78125 C 3.265625 -4.75 3.28125 -4.707031 3.28125 -4.65625 C 3.28125 -4.613281 3.265625 -4.570312 3.234375 -4.53125 C 3.203125 -4.5 3.160156 -4.484375 3.109375 -4.484375 L 0.859375 -4.484375 L 0.859375 -2.625 L 2.734375 -2.625 C 2.773438 -2.625 2.8125 -2.609375 2.84375 -2.578125 C 2.882812 -2.546875 2.90625 -2.503906 2.90625 -2.453125 C 2.90625 -2.410156 2.882812 -2.367188 2.84375 -2.328125 C 2.8125 -2.296875 2.773438 -2.28125 2.734375 -2.28125 L 0.859375 -2.28125 L 0.859375 -0.34375 L 3.109375 -0.34375 C 3.160156 -0.34375 3.203125 -0.328125 3.234375 -0.296875 C 3.265625 -0.265625 3.28125 -0.222656 3.28125 -0.171875 C 3.28125 -0.128906 3.265625 -0.0859375 3.234375 -0.046875 C 3.203125 -0.015625 3.160156 0 3.109375 0 Z M 0.6875 0 "/></g></g></g><g fill="#fec900" fill-opacity="1"><g transform="translate(27.848062, 7.697604)"><g><path d="M 0.375 0.0625 C 0.320312 0.0390625 0.285156 0.0078125 0.265625 -0.03125 C 0.253906 -0.0703125 0.257812 -0.117188 0.28125 -0.171875 L 2.015625 -4.84375 C 2.046875 -4.914062 2.097656 -4.953125 2.171875 -4.953125 C 2.253906 -4.953125 2.3125 -4.914062 2.34375 -4.84375 L 4.078125 -0.171875 C 4.097656 -0.117188 4.097656 -0.0703125 4.078125 -0.03125 C 4.054688 0.0078125 4.023438 0.0390625 3.984375 0.0625 C 3.941406 0.0703125 3.894531 0.0664062 3.84375 0.046875 C 3.800781 0.0234375 3.769531 -0.00390625 3.75 -0.046875 L 2.171875 -4.28125 L 1.21875 -1.71875 L 2.515625 -1.71875 C 2.566406 -1.71875 2.609375 -1.695312 2.640625 -1.65625 C 2.671875 -1.625 2.6875 -1.585938 2.6875 -1.546875 C 2.6875 -1.492188 2.671875 -1.453125 2.640625 -1.421875 C 2.609375 -1.390625 2.566406 -1.375 2.515625 -1.375 L 1.078125 -1.375 L 0.59375 -0.046875 C 0.570312 -0.00390625 0.539062 0.0234375 0.5 0.046875 C 0.457031 0.0664062 0.414062 0.0703125 0.375 0.0625 Z M 0.375 0.0625 "/></g></g></g><g fill="#fec900" fill-opacity="1"><g transform="translate(32.198466, 7.697604)"><g><path d="M 0.6875 0 C 0.644531 0 0.601562 -0.015625 0.5625 -0.046875 C 0.53125 -0.0859375 0.515625 -0.128906 0.515625 -0.171875 L 0.515625 -4.765625 C 0.515625 -4.804688 0.53125 -4.84375 0.5625 -4.875 C 0.601562 -4.914062 0.644531 -4.9375 0.6875 -4.9375 C 0.738281 -4.9375 0.78125 -4.914062 0.8125 -4.875 C 0.84375 -4.84375 0.859375 -4.804688 0.859375 -4.765625 L 0.859375 -0.34375 L 3.109375 -0.34375 C 3.160156 -0.34375 3.203125 -0.328125 3.234375 -0.296875 C 3.265625 -0.265625 3.28125 -0.222656 3.28125 -0.171875 C 3.28125 -0.128906 3.265625 -0.0859375 3.234375 -0.046875 C 3.203125 -0.015625 3.160156 0 3.109375 0 Z M 0.6875 0 "/></g></g></g><g fill="#fec900" fill-opacity="1"><g transform="translate(35.747842, 7.697604)"><g><path d="M 2.109375 0.09375 C 2.054688 0.09375 2.007812 0.078125 1.96875 0.046875 C 1.9375 0.015625 1.921875 -0.0195312 1.921875 -0.0625 L 1.921875 -4.484375 L 0.421875 -4.484375 C 0.378906 -4.484375 0.34375 -4.5 0.3125 -4.53125 C 0.28125 -4.570312 0.265625 -4.613281 0.265625 -4.65625 C 0.265625 -4.707031 0.28125 -4.75 0.3125 -4.78125 C 0.34375 -4.8125 0.378906 -4.828125 0.421875 -4.828125 L 3.765625 -4.828125 C 3.816406 -4.828125 3.859375 -4.8125 3.890625 -4.78125 C 3.921875 -4.75 3.9375 -4.707031 3.9375 -4.65625 C 3.9375 -4.613281 3.921875 -4.570312 3.890625 -4.53125 C 3.859375 -4.5 3.816406 -4.484375 3.765625 -4.484375 L 2.265625 -4.484375 L 2.265625 -0.0625 C 2.265625 -0.0195312 2.25 0.015625 2.21875 0.046875 C 2.1875 0.078125 2.148438 0.09375 2.109375 0.09375 Z M 2.109375 0.09375 "/></g></g></g><g fill="#fec900" fill-opacity="1"><g transform="translate(39.946324, 7.697604)"><g><path d="M 0.6875 0.09375 C 0.644531 0.09375 0.601562 0.078125 0.5625 0.046875 C 0.53125 0.015625 0.515625 -0.0234375 0.515625 -0.078125 L 0.515625 -4.765625 C 0.515625 -4.804688 0.53125 -4.84375 0.5625 -4.875 C 0.601562 -4.914062 0.644531 -4.9375 0.6875 -4.9375 C 0.738281 -4.9375 0.78125 -4.914062 0.8125 -4.875 C 0.84375 -4.84375 0.859375 -4.804688 0.859375 -4.765625 L 0.859375 -2.703125 L 3.390625 -2.703125 L 3.390625 -4.765625 C 3.390625 -4.804688 3.40625 -4.84375 3.4375 -4.875 C 3.476562 -4.914062 3.519531 -4.9375 3.5625 -4.9375 C 3.613281 -4.9375 3.65625 -4.914062 3.6875 -4.875 C 3.71875 -4.84375 3.734375 -4.804688 3.734375 -4.765625 L 3.734375 -0.078125 C 3.734375 -0.0234375 3.71875 0.015625 3.6875 0.046875 C 3.65625 0.078125 3.613281 0.09375 3.5625 0.09375 C 3.519531 0.09375 3.476562 0.078125 3.4375 0.046875 C 3.40625 0.015625 3.390625 -0.0234375 3.390625 -0.078125 L 3.390625 -2.359375 L 0.859375 -2.359375 L 0.859375 -0.078125 C 0.859375 -0.0234375 0.84375 0.015625 0.8125 0.046875 C 0.78125 0.078125 0.738281 0.09375 0.6875 0.09375 Z M 0.6875 0.09375 "/></g></g></g></g></g><path stroke-linecap="butt" transform="matrix(0.75, 0, 0, 0.75, 216.528521, 139.666953)" fill="none" stroke-linejoin="miter" d="M -0.00157017 1.001354 L 17.800514 1.001354 " stroke="#ffffff" stroke-width="2" stroke-opacity="1" stroke-miterlimit="4"/><g clip-path="url(#d56d473b65)"><path fill="#fec900" d="M 199.625 109.632812 C 196.167969 109.355469 191.757812 108.34375 188.960938 106.65625 C 189.285156 106.480469 189.734375 106.226562 190.269531 105.886719 C 191.316406 105.21875 192.824219 104.144531 194.046875 102.824219 C 194.578125 102.25 195.007812 101.605469 195.324219 100.898438 C 195.644531 100.195312 195.839844 99.453125 195.917969 98.691406 C 195.941406 98.445312 195.957031 98.226562 195.960938 98.039062 C 195.980469 97.363281 195.855469 96.699219 195.59375 96.070312 C 195.339844 95.46875 194.96875 94.921875 194.496094 94.453125 C 194.023438 93.980469 193.46875 93.609375 192.851562 93.347656 C 192.207031 93.074219 191.527344 92.9375 190.828125 92.9375 L 190.8125 92.9375 C 189.59375 92.941406 188.425781 93.355469 187.503906 94.113281 C 186.582031 93.351562 185.40625 92.9375 184.183594 92.9375 C 183.660156 92.9375 183.128906 93.011719 182.613281 93.164062 C 181.828125 93.394531 181.105469 93.8125 180.523438 94.375 C 179.941406 94.941406 179.511719 95.640625 179.277344 96.398438 C 179.1875 96.683594 179.125 97.011719 179.089844 97.375 C 178.882812 99.433594 179.625 101.5 181.132812 103.039062 C 182.367188 104.300781 183.847656 105.316406 184.871094 105.949219 C 185.355469 106.25 185.765625 106.480469 186.074219 106.648438 C 183.277344 108.339844 178.859375 109.355469 175.394531 109.632812 L 175.394531 92.703125 L 176.710938 91.617188 L 178.535156 90.113281 L 187.589844 82.648438 L 195.53125 89.820312 L 195.851562 90.113281 L 197.519531 91.617188 L 197.582031 91.671875 L 199.625 93.519531 Z M 187.644531 105.550781 C 187.613281 105.550781 187.582031 105.554688 187.550781 105.558594 C 187.539062 105.5625 187.523438 105.5625 187.511719 105.5625 C 187.496094 105.5625 187.480469 105.5625 187.46875 105.558594 C 187.457031 105.558594 187.449219 105.558594 187.4375 105.554688 C 187.121094 105.40625 186.464844 105.066406 185.652344 104.5625 C 184.738281 103.988281 183.414062 103.070312 182.320312 101.957031 C 181.136719 100.75 180.550781 99.132812 180.714844 97.527344 C 180.742188 97.265625 180.785156 97.039062 180.839844 96.851562 C 181.164062 95.804688 182.003906 94.988281 183.085938 94.675781 C 183.449219 94.566406 183.820312 94.515625 184.183594 94.515625 C 185.375 94.515625 186.472656 95.09375 187.125 96.0625 C 187.207031 96.1875 187.351562 96.261719 187.503906 96.261719 C 187.660156 96.261719 187.800781 96.1875 187.886719 96.0625 C 188.535156 95.097656 189.628906 94.515625 190.816406 94.515625 L 190.828125 94.515625 C 191.75 94.515625 192.660156 94.890625 193.324219 95.550781 C 193.988281 96.210938 194.355469 97.101562 194.328125 97.996094 C 194.324219 98.144531 194.3125 98.328125 194.292969 98.539062 C 194.171875 99.734375 193.65625 100.878906 192.832031 101.769531 C 191.75 102.9375 190.40625 103.902344 189.46875 104.503906 C 188.644531 105.035156 187.972656 105.390625 187.644531 105.550781 Z M 187.535156 105.597656 C 187.523438 105.59375 187.507812 105.589844 187.492188 105.582031 C 187.5 105.582031 187.503906 105.578125 187.507812 105.578125 C 187.527344 105.582031 187.542969 105.582031 187.5625 105.585938 C 187.550781 105.589844 187.542969 105.597656 187.535156 105.597656 Z M 204.507812 95.867188 L 201.183594 92.867188 L 198.644531 90.574219 C 198.648438 90.550781 198.648438 90.527344 198.648438 90.503906 L 198.648438 86.371094 C 198.648438 85.988281 198.328125 85.679688 197.929688 85.679688 L 196.246094 85.679688 C 195.851562 85.679688 195.53125 85.988281 195.53125 86.371094 L 195.53125 87.761719 L 188.144531 81.089844 C 187.855469 80.828125 187.40625 80.820312 187.105469 81.066406 L 176.136719 90.113281 L 173.835938 92.011719 L 170.507812 94.75 C 170.179688 95.023438 170.140625 95.496094 170.421875 95.8125 C 170.699219 96.128906 171.191406 96.167969 171.519531 95.898438 L 173.835938 93.988281 L 173.835938 110.402344 C 173.835938 110.820312 174.183594 111.15625 174.613281 111.15625 L 175.15625 111.15625 C 175.15625 111.15625 175.34375 111.148438 175.394531 111.144531 C 177.558594 110.980469 179.984375 110.542969 182.089844 109.929688 C 183.367188 109.5625 184.53125 109.128906 185.542969 108.652344 C 186.277344 108.300781 186.9375 107.925781 187.511719 107.53125 C 187.796875 107.726562 188.105469 107.921875 188.433594 108.109375 C 188.761719 108.296875 189.109375 108.476562 189.476562 108.652344 C 190.488281 109.128906 191.652344 109.5625 192.929688 109.929688 C 195.035156 110.542969 197.460938 110.980469 199.625 111.144531 C 199.675781 111.148438 199.863281 111.15625 199.863281 111.15625 L 200.40625 111.15625 C 200.835938 111.15625 201.183594 110.820312 201.183594 110.402344 L 201.183594 94.925781 L 203.445312 96.964844 C 203.59375 97.101562 203.785156 97.167969 203.976562 97.167969 C 204.183594 97.167969 204.390625 97.089844 204.542969 96.929688 C 204.839844 96.625 204.820312 96.148438 204.507812 95.867188 " fill-opacity="1" fill-rule="nonzero"/></g><path fill="#fec900" d="M 189.238281 99.257812 L 188.289062 99.257812 L 188.289062 98.304688 C 188.289062 97.867188 187.933594 97.511719 187.496094 97.511719 C 187.058594 97.511719 186.703125 97.867188 186.703125 98.304688 L 186.703125 99.257812 L 185.75 99.257812 C 185.3125 99.257812 184.957031 99.613281 184.957031 100.050781 C 184.957031 100.488281 185.3125 100.84375 185.75 100.84375 L 186.703125 100.84375 L 186.703125 101.796875 C 186.703125 102.234375 187.058594 102.589844 187.496094 102.589844 C 187.933594 102.589844 188.289062 102.234375 188.289062 101.796875 L 188.289062 100.84375 L 189.238281 100.84375 C 189.679688 100.84375 190.035156 100.488281 190.035156 100.050781 C 190.035156 99.613281 189.679688 99.257812 189.238281 99.257812 " fill-opacity="1" fill-rule="nonzero"/></svg>